%TF.GenerationSoftware,KiCad,Pcbnew,8.0.1*%
%TF.CreationDate,2024-07-31T22:53:36-04:00*%
%TF.ProjectId,Sensor_manager_V1_glove,53656e73-6f72-45f6-9d61-6e616765725f,rev?*%
%TF.SameCoordinates,Original*%
%TF.FileFunction,Copper,L1,Top*%
%TF.FilePolarity,Positive*%
%FSLAX46Y46*%
G04 Gerber Fmt 4.6, Leading zero omitted, Abs format (unit mm)*
G04 Created by KiCad (PCBNEW 8.0.1) date 2024-07-31 22:53:36*
%MOMM*%
%LPD*%
G01*
G04 APERTURE LIST*
G04 Aperture macros list*
%AMRoundRect*
0 Rectangle with rounded corners*
0 $1 Rounding radius*
0 $2 $3 $4 $5 $6 $7 $8 $9 X,Y pos of 4 corners*
0 Add a 4 corners polygon primitive as box body*
4,1,4,$2,$3,$4,$5,$6,$7,$8,$9,$2,$3,0*
0 Add four circle primitives for the rounded corners*
1,1,$1+$1,$2,$3*
1,1,$1+$1,$4,$5*
1,1,$1+$1,$6,$7*
1,1,$1+$1,$8,$9*
0 Add four rect primitives between the rounded corners*
20,1,$1+$1,$2,$3,$4,$5,0*
20,1,$1+$1,$4,$5,$6,$7,0*
20,1,$1+$1,$6,$7,$8,$9,0*
20,1,$1+$1,$8,$9,$2,$3,0*%
G04 Aperture macros list end*
%TA.AperFunction,SMDPad,CuDef*%
%ADD10R,0.450000X1.750000*%
%TD*%
%TA.AperFunction,SMDPad,CuDef*%
%ADD11RoundRect,0.135000X-0.185000X0.135000X-0.185000X-0.135000X0.185000X-0.135000X0.185000X0.135000X0*%
%TD*%
%TA.AperFunction,SMDPad,CuDef*%
%ADD12RoundRect,0.135000X0.185000X-0.135000X0.185000X0.135000X-0.185000X0.135000X-0.185000X-0.135000X0*%
%TD*%
%TA.AperFunction,ComponentPad*%
%ADD13C,1.879600*%
%TD*%
%TA.AperFunction,Conductor*%
%ADD14C,0.200000*%
%TD*%
G04 APERTURE END LIST*
D10*
%TO.P,U1,1,COM*%
%TO.N,/OUT*%
X88670000Y-51000000D03*
%TO.P,U1,2,I7*%
%TO.N,/IN7*%
X88020000Y-51000000D03*
%TO.P,U1,3,I6*%
%TO.N,/IN6*%
X87370000Y-51000000D03*
%TO.P,U1,4,I5*%
%TO.N,/IN5*%
X86720000Y-51000000D03*
%TO.P,U1,5,I4*%
%TO.N,/IN4*%
X86070000Y-51000000D03*
%TO.P,U1,6,I3*%
%TO.N,/IN3*%
X85420000Y-51000000D03*
%TO.P,U1,7,I2*%
%TO.N,/IN2*%
X84770000Y-51000000D03*
%TO.P,U1,8,I1*%
%TO.N,/IN1*%
X84120000Y-51000000D03*
%TO.P,U1,9,I0*%
%TO.N,/IN0*%
X83470000Y-51000000D03*
%TO.P,U1,10,S0*%
%TO.N,/S1*%
X82820000Y-51000000D03*
%TO.P,U1,11,S1*%
%TO.N,/S2*%
X82170000Y-51000000D03*
%TO.P,U1,12,GND*%
%TO.N,/GND*%
X81520000Y-51000000D03*
%TO.P,U1,13,S3*%
%TO.N,/S4*%
X81520000Y-58200000D03*
%TO.P,U1,14,S2*%
%TO.N,/S3*%
X82170000Y-58200000D03*
%TO.P,U1,15,~{E}*%
%TO.N,/GND*%
X82820000Y-58200000D03*
%TO.P,U1,16,I15*%
%TO.N,/IN15*%
X83470000Y-58200000D03*
%TO.P,U1,17,I14*%
%TO.N,/IN14*%
X84120000Y-58200000D03*
%TO.P,U1,18,I13*%
%TO.N,/IN13*%
X84770000Y-58200000D03*
%TO.P,U1,19,I12*%
%TO.N,/IN12*%
X85420000Y-58200000D03*
%TO.P,U1,20,I11*%
%TO.N,/IN11*%
X86070000Y-58200000D03*
%TO.P,U1,21,I10*%
%TO.N,/IN10*%
X86720000Y-58200000D03*
%TO.P,U1,22,I9*%
%TO.N,/IN9*%
X87370000Y-58200000D03*
%TO.P,U1,23,I8*%
%TO.N,/IN8*%
X88020000Y-58200000D03*
%TO.P,U1,24,VCC*%
%TO.N,/VCC*%
X88670000Y-58200000D03*
%TD*%
D11*
%TO.P,R16,2*%
%TO.N,/GND*%
X77850000Y-64010000D03*
%TO.P,R16,1*%
%TO.N,/IN15*%
X77850000Y-62990000D03*
%TD*%
%TO.P,R15,2*%
%TO.N,/GND*%
X79840000Y-64010000D03*
%TO.P,R15,1*%
%TO.N,/IN14*%
X79840000Y-62990000D03*
%TD*%
%TO.P,R14,2*%
%TO.N,/GND*%
X81830000Y-64010000D03*
%TO.P,R14,1*%
%TO.N,/IN13*%
X81830000Y-62990000D03*
%TD*%
%TO.P,R13,2*%
%TO.N,/GND*%
X83820000Y-64010000D03*
%TO.P,R13,1*%
%TO.N,/IN12*%
X83820000Y-62990000D03*
%TD*%
%TO.P,R12,2*%
%TO.N,/GND*%
X87860000Y-64020000D03*
%TO.P,R12,1*%
%TO.N,/IN11*%
X87860000Y-63000000D03*
%TD*%
%TO.P,R11,2*%
%TO.N,/GND*%
X89850000Y-64020000D03*
%TO.P,R11,1*%
%TO.N,/IN10*%
X89850000Y-63000000D03*
%TD*%
%TO.P,R10,2*%
%TO.N,/GND*%
X91840000Y-64020000D03*
%TO.P,R10,1*%
%TO.N,/IN9*%
X91840000Y-63000000D03*
%TD*%
%TO.P,R9,2*%
%TO.N,/GND*%
X93830000Y-64020000D03*
%TO.P,R9,1*%
%TO.N,/IN8*%
X93830000Y-63000000D03*
%TD*%
D12*
%TO.P,R8,1*%
%TO.N,/GND*%
X93390000Y-46520000D03*
%TO.P,R8,2*%
%TO.N,/IN7*%
X93390000Y-45500000D03*
%TD*%
%TO.P,R7,1*%
%TO.N,/GND*%
X91400000Y-46520000D03*
%TO.P,R7,2*%
%TO.N,/IN6*%
X91400000Y-45500000D03*
%TD*%
%TO.P,R6,1*%
%TO.N,/GND*%
X89410000Y-46520000D03*
%TO.P,R6,2*%
%TO.N,/IN5*%
X89410000Y-45500000D03*
%TD*%
%TO.P,R5,1*%
%TO.N,/GND*%
X87420000Y-46520000D03*
%TO.P,R5,2*%
%TO.N,/IN4*%
X87420000Y-45500000D03*
%TD*%
%TO.P,R4,2*%
%TO.N,/IN3*%
X83400000Y-45500000D03*
%TO.P,R4,1*%
%TO.N,/GND*%
X83400000Y-46520000D03*
%TD*%
%TO.P,R3,2*%
%TO.N,/IN2*%
X81410000Y-45500000D03*
%TO.P,R3,1*%
%TO.N,/GND*%
X81410000Y-46520000D03*
%TD*%
%TO.P,R2,2*%
%TO.N,/IN1*%
X79420000Y-45500000D03*
%TO.P,R2,1*%
%TO.N,/GND*%
X79420000Y-46520000D03*
%TD*%
%TO.P,R1,2*%
%TO.N,/IN0*%
X77430000Y-45500000D03*
%TO.P,R1,1*%
%TO.N,/GND*%
X77430000Y-46520000D03*
%TD*%
D13*
%TO.P,J3,7,Pin_7*%
%TO.N,/VCC*%
X73500000Y-46260000D03*
%TO.P,J3,6,Pin_6*%
%TO.N,/GND*%
X73500000Y-48800000D03*
%TO.P,J3,5,Pin_5*%
%TO.N,/S1*%
X73500000Y-51340000D03*
%TO.P,J3,4,Pin_4*%
%TO.N,/S2*%
X73500000Y-53880000D03*
%TO.P,J3,3,Pin_3*%
%TO.N,/S3*%
X73500000Y-56420000D03*
%TO.P,J3,2,Pin_2*%
%TO.N,/S4*%
X73500000Y-58960000D03*
%TO.P,J3,1,Pin_1*%
%TO.N,/OUT*%
X73500000Y-61500000D03*
%TD*%
%TO.P,J2,8,Pin_8*%
%TO.N,/IN15*%
X76760000Y-66500000D03*
%TO.P,J2,7,Pin_7*%
%TO.N,/IN14*%
X79300000Y-66500000D03*
%TO.P,J2,6,Pin_6*%
%TO.N,/IN13*%
X81840000Y-66500000D03*
%TO.P,J2,5,Pin_5*%
%TO.N,/IN12*%
X84380000Y-66500000D03*
%TO.P,J2,4,Pin_4*%
%TO.N,/IN11*%
X86920000Y-66500000D03*
%TO.P,J2,3,Pin_3*%
%TO.N,/IN10*%
X89460000Y-66500000D03*
%TO.P,J2,2,Pin_2*%
%TO.N,/IN9*%
X92000000Y-66500000D03*
%TO.P,J2,1,Pin_1*%
%TO.N,/IN8*%
X94540000Y-66500000D03*
%TD*%
%TO.P,J1,8,Pin_8*%
%TO.N,/IN7*%
X94660000Y-42510000D03*
%TO.P,J1,7,Pin_7*%
%TO.N,/IN6*%
X92120000Y-42510000D03*
%TO.P,J1,6,Pin_6*%
%TO.N,/IN5*%
X89580000Y-42510000D03*
%TO.P,J1,5,Pin_5*%
%TO.N,/IN4*%
X87040000Y-42510000D03*
%TO.P,J1,4,Pin_4*%
%TO.N,/IN3*%
X84500000Y-42510000D03*
%TO.P,J1,3,Pin_3*%
%TO.N,/IN2*%
X81960000Y-42510000D03*
%TO.P,J1,2,Pin_2*%
%TO.N,/IN1*%
X79420000Y-42510000D03*
%TO.P,J1,1,Pin_1*%
%TO.N,/IN0*%
X76880000Y-42510000D03*
%TD*%
D14*
%TO.N,/GND*%
X72380200Y-52640200D02*
X79879800Y-52640200D01*
X72260200Y-52520200D02*
X72380200Y-52640200D01*
X79879800Y-52640200D02*
X81520000Y-51000000D01*
X72260200Y-50039800D02*
X72260200Y-52520200D01*
X73500000Y-48800000D02*
X72260200Y-50039800D01*
%TO.N,/S1*%
X82820000Y-49925000D02*
X82820000Y-51000000D01*
X82720000Y-49825000D02*
X82820000Y-49925000D01*
X75015000Y-49825000D02*
X82720000Y-49825000D01*
X73500000Y-51340000D02*
X75015000Y-49825000D01*
%TO.N,/S2*%
X82170000Y-52075000D02*
X82170000Y-51000000D01*
X73500000Y-53880000D02*
X80365000Y-53880000D01*
X80365000Y-53880000D02*
X82170000Y-52075000D01*
%TO.N,/OUT*%
X88670000Y-52075000D02*
X88670000Y-51000000D01*
X85564800Y-55180200D02*
X88670000Y-52075000D01*
X71860200Y-56306458D02*
X72986458Y-55180200D01*
X71860200Y-59860200D02*
X71860200Y-56306458D01*
X72986458Y-55180200D02*
X85564800Y-55180200D01*
%TO.N,/GND*%
X94980000Y-46520000D02*
X93390000Y-46520000D01*
X96900000Y-40900000D02*
X96900000Y-44600000D01*
X76035088Y-40470200D02*
X96470200Y-40470200D01*
X74013542Y-42491746D02*
X76035088Y-40470200D01*
X74013542Y-45020200D02*
X74013542Y-42491746D01*
X96470200Y-40470200D02*
X96900000Y-40900000D01*
X96900000Y-44600000D02*
X94980000Y-46520000D01*
X74739800Y-45746458D02*
X74013542Y-45020200D01*
X74739800Y-47560200D02*
X74739800Y-45746458D01*
X73500000Y-48800000D02*
X74739800Y-47560200D01*
X70000000Y-48006658D02*
X72986458Y-45020200D01*
X72986458Y-45020200D02*
X74013542Y-45020200D01*
X70000000Y-65631372D02*
X70000000Y-48006658D01*
X96179800Y-63614115D02*
X96179800Y-67385886D01*
X94765685Y-68800000D02*
X73168628Y-68800000D01*
X73168628Y-68800000D02*
X70000000Y-65631372D01*
X96179800Y-67385886D02*
X94765685Y-68800000D01*
X89165686Y-56600000D02*
X96179800Y-63614115D01*
X83345000Y-56600000D02*
X89165686Y-56600000D01*
X82820000Y-57125000D02*
X83345000Y-56600000D01*
X82820000Y-58200000D02*
X82820000Y-57125000D01*
X73500000Y-48800000D02*
X71460200Y-50839800D01*
X71460200Y-50839800D02*
X71460200Y-65960200D01*
X71460200Y-65960200D02*
X73500000Y-68000000D01*
X73500000Y-68000000D02*
X77013342Y-68000000D01*
%TO.N,/OUT*%
X73500000Y-61500000D02*
X71860200Y-59860200D01*
%TO.N,/VCC*%
X95779800Y-63779800D02*
X90200000Y-58200000D01*
X90200000Y-58200000D02*
X88670000Y-58200000D01*
X73334314Y-68400000D02*
X94600000Y-68400000D01*
X70500000Y-65565686D02*
X73334314Y-68400000D01*
X70500000Y-49260000D02*
X70500000Y-65565686D01*
X94600000Y-68400000D02*
X95779800Y-67220200D01*
X95779800Y-67220200D02*
X95779800Y-63779800D01*
X73500000Y-46260000D02*
X70500000Y-49260000D01*
%TO.N,/S4*%
X80760000Y-58960000D02*
X81520000Y-58200000D01*
X73500000Y-58960000D02*
X80760000Y-58960000D01*
%TO.N,/S3*%
X81465000Y-56420000D02*
X82170000Y-57125000D01*
X73500000Y-56420000D02*
X81465000Y-56420000D01*
X82170000Y-57125000D02*
X82170000Y-58200000D01*
%TO.N,/IN13*%
X84770000Y-60050000D02*
X84770000Y-58200000D01*
X81830000Y-62990000D02*
X84770000Y-60050000D01*
%TO.N,/GND*%
X81520000Y-51000000D02*
X81520000Y-50610000D01*
%TO.N,/IN15*%
X76106658Y-65846658D02*
X76760000Y-66500000D01*
X76106658Y-64733342D02*
X76106658Y-65846658D01*
X77850000Y-62990000D02*
X76106658Y-64733342D01*
%TO.N,/GND*%
X93830000Y-65409800D02*
X93239800Y-66000000D01*
X93239800Y-66000000D02*
X93239800Y-67260200D01*
X93830000Y-64020000D02*
X93830000Y-65409800D01*
X93239800Y-65419800D02*
X93239800Y-66000000D01*
X93239800Y-67260200D02*
X92550000Y-67950000D01*
X89950000Y-67950000D02*
X89900000Y-68000000D01*
X91840000Y-64020000D02*
X93239800Y-65419800D01*
X92550000Y-67950000D02*
X89950000Y-67950000D01*
X90699800Y-67200200D02*
X89950000Y-67950000D01*
X89900000Y-68000000D02*
X86500000Y-68000000D01*
X89850000Y-64020000D02*
X90699800Y-64869800D01*
X86500000Y-68000000D02*
X85000000Y-68000000D01*
X87173342Y-68000000D02*
X86500000Y-68000000D01*
X90699800Y-64869800D02*
X90699800Y-67200200D01*
X88159800Y-67013542D02*
X87173342Y-68000000D01*
X88159800Y-65986458D02*
X88159800Y-67013542D01*
X87860000Y-65686658D02*
X88159800Y-65986458D01*
X87860000Y-64020000D02*
X87860000Y-65686658D01*
X85619800Y-67380200D02*
X85000000Y-68000000D01*
X85000000Y-68000000D02*
X82000000Y-68000000D01*
X85619800Y-65809800D02*
X85619800Y-67380200D01*
X83820000Y-64010000D02*
X85619800Y-65809800D01*
X82000000Y-68000000D02*
X79613742Y-68000000D01*
X82400000Y-68000000D02*
X82000000Y-68000000D01*
X83079800Y-65986458D02*
X83079800Y-67320200D01*
X83079800Y-67320200D02*
X82400000Y-68000000D01*
X81830000Y-64736658D02*
X83079800Y-65986458D01*
X81830000Y-64010000D02*
X81830000Y-64736658D01*
X80600200Y-67013542D02*
X80600200Y-65825886D01*
X79613742Y-68000000D02*
X80600200Y-67013542D01*
X80600200Y-65825886D02*
X79840000Y-65065686D01*
X79840000Y-65065686D02*
X79840000Y-64010000D01*
X77013342Y-68000000D02*
X79613742Y-68000000D01*
X77850000Y-65615686D02*
X77850000Y-64010000D01*
X78060200Y-66953142D02*
X78060200Y-65825886D01*
X77013342Y-68000000D02*
X78060200Y-66953142D01*
X78060200Y-65825886D02*
X77850000Y-65615686D01*
%TO.N,/IN9*%
X87370000Y-59275000D02*
X87370000Y-58200000D01*
X91095000Y-63000000D02*
X87370000Y-59275000D01*
X91840000Y-63000000D02*
X91095000Y-63000000D01*
%TO.N,/IN8*%
X88020000Y-59275000D02*
X88020000Y-58200000D01*
X88120000Y-59375000D02*
X88020000Y-59275000D01*
X90205000Y-59375000D02*
X88120000Y-59375000D01*
X93830000Y-63000000D02*
X90205000Y-59375000D01*
X94540000Y-63710000D02*
X93830000Y-63000000D01*
X94540000Y-66500000D02*
X94540000Y-63710000D01*
%TO.N,/IN9*%
X91220000Y-63620000D02*
X91840000Y-63000000D01*
X91220000Y-65220000D02*
X91220000Y-63620000D01*
X92000000Y-66000000D02*
X91220000Y-65220000D01*
X92000000Y-66500000D02*
X92000000Y-66000000D01*
%TO.N,/IN10*%
X86720000Y-59870000D02*
X86720000Y-58200000D01*
X89850000Y-63000000D02*
X86720000Y-59870000D01*
X88520201Y-64329799D02*
X89850000Y-63000000D01*
X89460000Y-66500000D02*
X88520201Y-65560201D01*
X88520201Y-65560201D02*
X88520201Y-64329799D01*
%TO.N,/IN11*%
X87860000Y-63000000D02*
X86070000Y-61210000D01*
X86070000Y-61210000D02*
X86070000Y-58200000D01*
X86920000Y-63940000D02*
X87860000Y-63000000D01*
X86920000Y-66500000D02*
X86920000Y-63940000D01*
%TO.N,/IN12*%
X85420000Y-60580000D02*
X85420000Y-58200000D01*
X83820000Y-62180000D02*
X85420000Y-60580000D01*
X83820000Y-62990000D02*
X83820000Y-62180000D01*
X83200000Y-65320000D02*
X83200000Y-63610000D01*
X83200000Y-63610000D02*
X83820000Y-62990000D01*
X84380000Y-66500000D02*
X83200000Y-65320000D01*
%TO.N,/IN13*%
X80570686Y-64249314D02*
X81830000Y-62990000D01*
X80570686Y-65230686D02*
X80570686Y-64249314D01*
X81840000Y-66500000D02*
X80570686Y-65230686D01*
%TO.N,/IN14*%
X78360201Y-64469799D02*
X79840000Y-62990000D01*
X78360201Y-65560201D02*
X78360201Y-64469799D01*
X79300000Y-66500000D02*
X78360201Y-65560201D01*
X80405000Y-62990000D02*
X84120000Y-59275000D01*
X79840000Y-62990000D02*
X80405000Y-62990000D01*
X84120000Y-59275000D02*
X84120000Y-58200000D01*
%TO.N,/IN15*%
X81465000Y-59375000D02*
X83370000Y-59375000D01*
X77850000Y-62990000D02*
X81465000Y-59375000D01*
X83370000Y-59375000D02*
X83470000Y-59275000D01*
X83470000Y-59275000D02*
X83470000Y-58200000D01*
%TO.N,/GND*%
X76366458Y-41270200D02*
X79500000Y-41270200D01*
X75640200Y-41996458D02*
X76366458Y-41270200D01*
X75640200Y-44730200D02*
X75640200Y-41996458D01*
X77430000Y-46520000D02*
X75640200Y-44730200D01*
X79500000Y-41270200D02*
X81229800Y-41270200D01*
X78906458Y-41270200D02*
X79500000Y-41270200D01*
X78119800Y-42056858D02*
X78906458Y-41270200D01*
X78119800Y-45219800D02*
X78119800Y-42056858D01*
X79420000Y-46520000D02*
X78119800Y-45219800D01*
X80659800Y-41840200D02*
X81229800Y-41270200D01*
X81229800Y-41270200D02*
X84500000Y-41270200D01*
X80659800Y-45769800D02*
X80659800Y-41840200D01*
X81410000Y-46520000D02*
X80659800Y-45769800D01*
X84500000Y-41270200D02*
X86526458Y-41270200D01*
X83986458Y-41270200D02*
X84500000Y-41270200D01*
X83199800Y-43023542D02*
X83199800Y-42056858D01*
X82780000Y-43443342D02*
X83199800Y-43023542D01*
X82780000Y-45900000D02*
X82780000Y-43443342D01*
X83400000Y-46520000D02*
X82780000Y-45900000D01*
X83199800Y-42056858D02*
X83986458Y-41270200D01*
X86526458Y-41270200D02*
X92000000Y-41270200D01*
X85739800Y-44839800D02*
X85739800Y-42056858D01*
X85739800Y-42056858D02*
X86526458Y-41270200D01*
X92000000Y-41270200D02*
X94086058Y-41270200D01*
X91229800Y-41270200D02*
X92000000Y-41270200D01*
X87420000Y-46520000D02*
X85739800Y-44839800D01*
X90880200Y-41619800D02*
X91229800Y-41270200D01*
X90880200Y-45049800D02*
X90880200Y-41619800D01*
X89410000Y-46520000D02*
X90880200Y-45049800D01*
X93359800Y-41996458D02*
X93359800Y-44560200D01*
X94086058Y-41270200D02*
X93359800Y-41996458D01*
X93359800Y-44560200D02*
X91400000Y-46520000D01*
X95899800Y-41499800D02*
X95670200Y-41270200D01*
X95670200Y-41270200D02*
X94086058Y-41270200D01*
X95899800Y-44010200D02*
X95899800Y-41499800D01*
X93390000Y-46520000D02*
X95899800Y-44010200D01*
%TO.N,/IN7*%
X88020000Y-49925000D02*
X88020000Y-51000000D01*
X88120000Y-49825000D02*
X88020000Y-49925000D01*
X89065000Y-49825000D02*
X88120000Y-49825000D01*
X93390000Y-45500000D02*
X89065000Y-49825000D01*
%TO.N,/IN6*%
X89000000Y-48290000D02*
X87370000Y-49920000D01*
X87370000Y-49920000D02*
X87370000Y-51000000D01*
X89000000Y-47900000D02*
X89000000Y-48290000D01*
X91400000Y-45500000D02*
X89000000Y-47900000D01*
%TO.N,/IN5*%
X88500000Y-48145000D02*
X86720000Y-49925000D01*
X89410000Y-45500000D02*
X88500000Y-46410000D01*
X88500000Y-46410000D02*
X88500000Y-48145000D01*
X86720000Y-49925000D02*
X86720000Y-51000000D01*
%TO.N,/IN4*%
X86070000Y-49925000D02*
X86070000Y-51000000D01*
X88040000Y-47955000D02*
X86070000Y-49925000D01*
X88040000Y-46120000D02*
X88040000Y-47955000D01*
X87420000Y-45500000D02*
X88040000Y-46120000D01*
%TO.N,/IN3*%
X84020000Y-46120000D02*
X84020000Y-46980000D01*
X83400000Y-45500000D02*
X84020000Y-46120000D01*
X84020000Y-46980000D02*
X85420000Y-48380000D01*
X85420000Y-48380000D02*
X85420000Y-51000000D01*
%TO.N,/IN2*%
X84770000Y-48860000D02*
X84770000Y-51000000D01*
X81410000Y-45500000D02*
X84770000Y-48860000D01*
%TO.N,/IN1*%
X84120000Y-49620000D02*
X84120000Y-51000000D01*
X81590000Y-47090000D02*
X84120000Y-49620000D01*
X81010000Y-47090000D02*
X81590000Y-47090000D01*
X79420000Y-45500000D02*
X81010000Y-47090000D01*
%TO.N,/IN0*%
X83470000Y-49925000D02*
X83470000Y-51000000D01*
X80995000Y-49065000D02*
X82610000Y-49065000D01*
X77430000Y-45500000D02*
X80995000Y-49065000D01*
X82610000Y-49065000D02*
X83470000Y-49925000D01*
%TO.N,/IN7*%
X94660000Y-44230000D02*
X93390000Y-45500000D01*
X94660000Y-42510000D02*
X94660000Y-44230000D01*
%TO.N,/IN6*%
X92120000Y-44780000D02*
X91400000Y-45500000D01*
X92120000Y-42510000D02*
X92120000Y-44780000D01*
%TO.N,/IN5*%
X89580000Y-45330000D02*
X89410000Y-45500000D01*
X89580000Y-42510000D02*
X89580000Y-45330000D01*
%TO.N,/IN4*%
X87040000Y-45120000D02*
X87420000Y-45500000D01*
X87040000Y-42510000D02*
X87040000Y-45120000D01*
%TO.N,/IN3*%
X84500000Y-44400000D02*
X83400000Y-45500000D01*
X84500000Y-42510000D02*
X84500000Y-44400000D01*
%TO.N,/IN2*%
X81960000Y-44950000D02*
X81410000Y-45500000D01*
X81960000Y-42510000D02*
X81960000Y-44950000D01*
%TO.N,/IN1*%
X79420000Y-42510000D02*
X79420000Y-45500000D01*
%TO.N,/IN0*%
X76880000Y-44950000D02*
X77430000Y-45500000D01*
X76880000Y-42510000D02*
X76880000Y-44950000D01*
%TD*%
%TA.AperFunction,Conductor*%
%TO.N,/GND*%
G36*
X80197942Y-59580185D02*
G01*
X80243697Y-59632989D01*
X80253641Y-59702147D01*
X80224616Y-59765703D01*
X80218584Y-59772181D01*
X77807582Y-62183181D01*
X77746259Y-62216666D01*
X77719902Y-62219500D01*
X77600831Y-62219500D01*
X77600807Y-62219501D01*
X77564794Y-62222335D01*
X77410611Y-62267129D01*
X77410606Y-62267131D01*
X77272404Y-62348863D01*
X77272396Y-62348869D01*
X77158869Y-62462396D01*
X77158863Y-62462404D01*
X77077131Y-62600606D01*
X77077129Y-62600611D01*
X77032335Y-62754791D01*
X77032334Y-62754797D01*
X77029500Y-62790811D01*
X77029500Y-62909902D01*
X77009815Y-62976941D01*
X76993181Y-62997583D01*
X75626139Y-64364624D01*
X75626137Y-64364627D01*
X75576019Y-64451436D01*
X75576017Y-64451438D01*
X75547083Y-64501551D01*
X75547082Y-64501552D01*
X75534407Y-64548856D01*
X75506157Y-64654285D01*
X75506157Y-64654287D01*
X75506157Y-64822388D01*
X75506158Y-64822401D01*
X75506158Y-65748950D01*
X75491214Y-65807966D01*
X75488951Y-65812147D01*
X75393070Y-66030732D01*
X75334475Y-66262118D01*
X75334473Y-66262130D01*
X75314764Y-66499994D01*
X75314764Y-66500005D01*
X75334473Y-66737869D01*
X75334475Y-66737881D01*
X75393070Y-66969267D01*
X75488951Y-67187852D01*
X75488953Y-67187856D01*
X75619506Y-67387682D01*
X75781168Y-67563295D01*
X75781171Y-67563297D01*
X75781172Y-67563299D01*
X75799606Y-67577646D01*
X75840420Y-67634356D01*
X75844095Y-67704129D01*
X75809464Y-67764812D01*
X75747523Y-67797140D01*
X75723445Y-67799500D01*
X73634411Y-67799500D01*
X73567372Y-67779815D01*
X73546730Y-67763181D01*
X71136819Y-65353270D01*
X71103334Y-65291947D01*
X71100500Y-65265589D01*
X71100500Y-60208134D01*
X71120185Y-60141095D01*
X71172989Y-60095340D01*
X71242147Y-60085396D01*
X71305703Y-60114421D01*
X71331884Y-60146130D01*
X71366570Y-60206208D01*
X71379679Y-60228915D01*
X71498549Y-60347785D01*
X71498555Y-60347790D01*
X72093035Y-60942270D01*
X72126520Y-61003593D01*
X72125560Y-61060391D01*
X72074475Y-61262118D01*
X72074473Y-61262130D01*
X72054764Y-61499994D01*
X72054764Y-61500005D01*
X72074473Y-61737869D01*
X72074475Y-61737881D01*
X72133070Y-61969267D01*
X72211836Y-62148834D01*
X72228953Y-62187856D01*
X72359506Y-62387682D01*
X72521168Y-62563295D01*
X72709531Y-62709903D01*
X72919455Y-62823509D01*
X73145216Y-62901012D01*
X73380653Y-62940300D01*
X73380654Y-62940300D01*
X73619346Y-62940300D01*
X73619347Y-62940300D01*
X73854784Y-62901012D01*
X74080545Y-62823509D01*
X74290469Y-62709903D01*
X74478832Y-62563295D01*
X74640494Y-62387682D01*
X74771047Y-62187856D01*
X74866929Y-61969267D01*
X74925525Y-61737878D01*
X74925526Y-61737869D01*
X74945236Y-61500005D01*
X74945236Y-61499994D01*
X74925526Y-61262130D01*
X74925524Y-61262118D01*
X74866929Y-61030732D01*
X74771048Y-60812147D01*
X74771047Y-60812144D01*
X74640494Y-60612318D01*
X74478832Y-60436705D01*
X74338978Y-60327853D01*
X74298166Y-60271143D01*
X74294491Y-60201370D01*
X74329122Y-60140687D01*
X74338979Y-60132146D01*
X74358250Y-60117147D01*
X74478832Y-60023295D01*
X74640494Y-59847682D01*
X74771047Y-59647856D01*
X74776821Y-59634691D01*
X74821776Y-59581205D01*
X74888512Y-59560514D01*
X74890378Y-59560500D01*
X80130903Y-59560500D01*
X80197942Y-59580185D01*
G37*
%TD.AperFunction*%
%TA.AperFunction,Conductor*%
G36*
X83191904Y-67323071D02*
G01*
X83213809Y-67348350D01*
X83239506Y-67387682D01*
X83401168Y-67563295D01*
X83401171Y-67563297D01*
X83401172Y-67563299D01*
X83419606Y-67577646D01*
X83460420Y-67634356D01*
X83464095Y-67704129D01*
X83429464Y-67764812D01*
X83367523Y-67797140D01*
X83343445Y-67799500D01*
X82876555Y-67799500D01*
X82809516Y-67779815D01*
X82763761Y-67727011D01*
X82753817Y-67657853D01*
X82782842Y-67594297D01*
X82800394Y-67577646D01*
X82818827Y-67563299D01*
X82818827Y-67563298D01*
X82818832Y-67563295D01*
X82980494Y-67387682D01*
X83006191Y-67348350D01*
X83059337Y-67302993D01*
X83128568Y-67293569D01*
X83191904Y-67323071D01*
G37*
%TD.AperFunction*%
%TA.AperFunction,Conductor*%
G36*
X85731904Y-67323071D02*
G01*
X85753809Y-67348350D01*
X85779506Y-67387682D01*
X85941168Y-67563295D01*
X85941171Y-67563297D01*
X85941172Y-67563299D01*
X85959606Y-67577646D01*
X86000420Y-67634356D01*
X86004095Y-67704129D01*
X85969464Y-67764812D01*
X85907523Y-67797140D01*
X85883445Y-67799500D01*
X85416555Y-67799500D01*
X85349516Y-67779815D01*
X85303761Y-67727011D01*
X85293817Y-67657853D01*
X85322842Y-67594297D01*
X85340394Y-67577646D01*
X85358827Y-67563299D01*
X85358827Y-67563298D01*
X85358832Y-67563295D01*
X85520494Y-67387682D01*
X85546191Y-67348350D01*
X85599337Y-67302993D01*
X85668568Y-67293569D01*
X85731904Y-67323071D01*
G37*
%TD.AperFunction*%
%TA.AperFunction,Conductor*%
G36*
X90811904Y-67323071D02*
G01*
X90833809Y-67348350D01*
X90859506Y-67387682D01*
X91021168Y-67563295D01*
X91021171Y-67563297D01*
X91021172Y-67563299D01*
X91039606Y-67577646D01*
X91080420Y-67634356D01*
X91084095Y-67704129D01*
X91049464Y-67764812D01*
X90987523Y-67797140D01*
X90963445Y-67799500D01*
X90496555Y-67799500D01*
X90429516Y-67779815D01*
X90383761Y-67727011D01*
X90373817Y-67657853D01*
X90402842Y-67594297D01*
X90420394Y-67577646D01*
X90438827Y-67563299D01*
X90438827Y-67563298D01*
X90438832Y-67563295D01*
X90600494Y-67387682D01*
X90626191Y-67348350D01*
X90679337Y-67302993D01*
X90748568Y-67293569D01*
X90811904Y-67323071D01*
G37*
%TD.AperFunction*%
%TA.AperFunction,Conductor*%
G36*
X93351904Y-67323071D02*
G01*
X93373809Y-67348350D01*
X93399506Y-67387682D01*
X93561168Y-67563295D01*
X93561171Y-67563297D01*
X93561172Y-67563299D01*
X93579606Y-67577646D01*
X93620420Y-67634356D01*
X93624095Y-67704129D01*
X93589464Y-67764812D01*
X93527523Y-67797140D01*
X93503445Y-67799500D01*
X93036555Y-67799500D01*
X92969516Y-67779815D01*
X92923761Y-67727011D01*
X92913817Y-67657853D01*
X92942842Y-67594297D01*
X92960394Y-67577646D01*
X92978827Y-67563299D01*
X92978827Y-67563298D01*
X92978832Y-67563295D01*
X93140494Y-67387682D01*
X93166191Y-67348350D01*
X93219337Y-67302993D01*
X93288568Y-67293569D01*
X93351904Y-67323071D01*
G37*
%TD.AperFunction*%
%TA.AperFunction,Conductor*%
G36*
X85489479Y-61462269D02*
G01*
X85545412Y-61504141D01*
X85553533Y-61516452D01*
X85589479Y-61578715D01*
X85708349Y-61697585D01*
X85708355Y-61697590D01*
X86923083Y-62912318D01*
X86956568Y-62973641D01*
X86951584Y-63043333D01*
X86923083Y-63087680D01*
X86551286Y-63459478D01*
X86439481Y-63571282D01*
X86439479Y-63571285D01*
X86389361Y-63658094D01*
X86389359Y-63658096D01*
X86360425Y-63708209D01*
X86360424Y-63708210D01*
X86353235Y-63735039D01*
X86319499Y-63860943D01*
X86319499Y-63860945D01*
X86319499Y-64029046D01*
X86319500Y-64029059D01*
X86319500Y-65113401D01*
X86299815Y-65180440D01*
X86254519Y-65222455D01*
X86129533Y-65290095D01*
X86129530Y-65290097D01*
X85941169Y-65436704D01*
X85779508Y-65612315D01*
X85753808Y-65651652D01*
X85700661Y-65697008D01*
X85631430Y-65706431D01*
X85568094Y-65676928D01*
X85546192Y-65651652D01*
X85541676Y-65644740D01*
X85520494Y-65612318D01*
X85358832Y-65436705D01*
X85170469Y-65290097D01*
X85050185Y-65225002D01*
X84960546Y-65176491D01*
X84960541Y-65176489D01*
X84734786Y-65098988D01*
X84568651Y-65071265D01*
X84499347Y-65059700D01*
X84260653Y-65059700D01*
X84237132Y-65063625D01*
X84025214Y-65098987D01*
X83964761Y-65119741D01*
X83894963Y-65122890D01*
X83834542Y-65087803D01*
X83802682Y-65025620D01*
X83800500Y-65002459D01*
X83800500Y-63910097D01*
X83820185Y-63843058D01*
X83836819Y-63822416D01*
X83862417Y-63796818D01*
X83923740Y-63763333D01*
X83950098Y-63760499D01*
X84069168Y-63760499D01*
X84069180Y-63760499D01*
X84105204Y-63757665D01*
X84259393Y-63712869D01*
X84397598Y-63631135D01*
X84511135Y-63517598D01*
X84592869Y-63379393D01*
X84634759Y-63235208D01*
X84637664Y-63225208D01*
X84637665Y-63225202D01*
X84640499Y-63189188D01*
X84640500Y-63189181D01*
X84640499Y-62790820D01*
X84637665Y-62754796D01*
X84592869Y-62600607D01*
X84513903Y-62467082D01*
X84496720Y-62399358D01*
X84518880Y-62333095D01*
X84532948Y-62316286D01*
X85358466Y-61490768D01*
X85419787Y-61457285D01*
X85489479Y-61462269D01*
G37*
%TD.AperFunction*%
%TA.AperFunction,Conductor*%
G36*
X92865701Y-62885383D02*
G01*
X92872180Y-62891415D01*
X92973181Y-62992416D01*
X93006666Y-63053739D01*
X93009500Y-63080096D01*
X93009500Y-63199168D01*
X93009501Y-63199192D01*
X93012335Y-63235205D01*
X93057129Y-63389388D01*
X93057131Y-63389393D01*
X93138863Y-63527595D01*
X93138869Y-63527603D01*
X93252396Y-63641130D01*
X93252400Y-63641133D01*
X93252402Y-63641135D01*
X93390607Y-63722869D01*
X93420907Y-63731672D01*
X93544791Y-63767664D01*
X93544794Y-63767664D01*
X93544796Y-63767665D01*
X93580819Y-63770500D01*
X93699902Y-63770499D01*
X93766941Y-63790183D01*
X93787583Y-63806818D01*
X93903181Y-63922416D01*
X93936666Y-63983739D01*
X93939500Y-64010097D01*
X93939500Y-65113401D01*
X93919815Y-65180440D01*
X93874519Y-65222455D01*
X93749533Y-65290095D01*
X93749530Y-65290097D01*
X93561169Y-65436704D01*
X93399508Y-65612315D01*
X93373808Y-65651652D01*
X93320661Y-65697008D01*
X93251430Y-65706431D01*
X93188094Y-65676928D01*
X93166192Y-65651652D01*
X93161676Y-65644740D01*
X93140494Y-65612318D01*
X92978832Y-65436705D01*
X92790469Y-65290097D01*
X92670185Y-65225002D01*
X92580546Y-65176491D01*
X92580541Y-65176489D01*
X92354786Y-65098988D01*
X92188651Y-65071265D01*
X92119347Y-65059700D01*
X92119346Y-65059700D01*
X91960298Y-65059700D01*
X91893259Y-65040015D01*
X91872614Y-65023378D01*
X91856816Y-65007579D01*
X91823333Y-64946255D01*
X91820500Y-64919901D01*
X91820500Y-63920097D01*
X91840185Y-63853058D01*
X91856819Y-63832416D01*
X91882417Y-63806818D01*
X91943740Y-63773333D01*
X91970098Y-63770499D01*
X92089168Y-63770499D01*
X92089180Y-63770499D01*
X92125204Y-63767665D01*
X92279393Y-63722869D01*
X92417598Y-63641135D01*
X92531135Y-63527598D01*
X92612869Y-63389393D01*
X92657665Y-63235204D01*
X92660500Y-63199181D01*
X92660499Y-62979095D01*
X92680183Y-62912057D01*
X92732987Y-62866302D01*
X92802145Y-62856358D01*
X92865701Y-62885383D01*
G37*
%TD.AperFunction*%
%TA.AperFunction,Conductor*%
G36*
X90566365Y-63643284D02*
G01*
X90610129Y-63697750D01*
X90619500Y-63745039D01*
X90619500Y-65133330D01*
X90619499Y-65133348D01*
X90619499Y-65299054D01*
X90620560Y-65307112D01*
X90617756Y-65307481D01*
X90616420Y-65363621D01*
X90577257Y-65421483D01*
X90513028Y-65448987D01*
X90444126Y-65437400D01*
X90422146Y-65423718D01*
X90250469Y-65290097D01*
X90130185Y-65225002D01*
X90040546Y-65176491D01*
X90040541Y-65176489D01*
X89814786Y-65098988D01*
X89648651Y-65071265D01*
X89579347Y-65059700D01*
X89340653Y-65059700D01*
X89340652Y-65059700D01*
X89265109Y-65072305D01*
X89195744Y-65063922D01*
X89141923Y-65019369D01*
X89120732Y-64952790D01*
X89120701Y-64949996D01*
X89120701Y-64629896D01*
X89140386Y-64562857D01*
X89157020Y-64542215D01*
X89892417Y-63806818D01*
X89953740Y-63773333D01*
X89980098Y-63770499D01*
X90099168Y-63770499D01*
X90099180Y-63770499D01*
X90135204Y-63767665D01*
X90289393Y-63722869D01*
X90427598Y-63641135D01*
X90427599Y-63641133D01*
X90432379Y-63638307D01*
X90500103Y-63621124D01*
X90566365Y-63643284D01*
G37*
%TD.AperFunction*%
%TA.AperFunction,Conductor*%
G36*
X77742927Y-64048819D02*
G01*
X77798861Y-64090691D01*
X77823278Y-64156155D01*
X77808426Y-64224428D01*
X77806983Y-64226998D01*
X77800625Y-64238010D01*
X77800624Y-64238011D01*
X77776413Y-64328371D01*
X77759700Y-64390742D01*
X77759700Y-64390744D01*
X77759700Y-64558845D01*
X77759701Y-64558858D01*
X77759701Y-65199302D01*
X77740016Y-65266341D01*
X77687212Y-65312096D01*
X77618054Y-65322040D01*
X77559540Y-65297157D01*
X77550470Y-65290097D01*
X77340546Y-65176491D01*
X77340541Y-65176489D01*
X77114786Y-65098988D01*
X76902870Y-65063625D01*
X76839985Y-65033174D01*
X76803545Y-64973559D01*
X76805121Y-64903707D01*
X76835597Y-64853637D01*
X77611915Y-64077318D01*
X77673236Y-64043835D01*
X77742927Y-64048819D01*
G37*
%TD.AperFunction*%
%TA.AperFunction,Conductor*%
G36*
X87902926Y-63908821D02*
G01*
X87958860Y-63950692D01*
X87983277Y-64016157D01*
X87968425Y-64084430D01*
X87966982Y-64087000D01*
X87960625Y-64098010D01*
X87960624Y-64098011D01*
X87945045Y-64156155D01*
X87919700Y-64250742D01*
X87919700Y-64250744D01*
X87919700Y-64418845D01*
X87919701Y-64418858D01*
X87919701Y-65199302D01*
X87900016Y-65266341D01*
X87847212Y-65312096D01*
X87778054Y-65322040D01*
X87719540Y-65297157D01*
X87710469Y-65290097D01*
X87710466Y-65290095D01*
X87585481Y-65222455D01*
X87535891Y-65173235D01*
X87520500Y-65113401D01*
X87520500Y-64240097D01*
X87540185Y-64173058D01*
X87556819Y-64152416D01*
X87660416Y-64048819D01*
X87771914Y-63937320D01*
X87833235Y-63903837D01*
X87902926Y-63908821D01*
G37*
%TD.AperFunction*%
%TA.AperFunction,Conductor*%
G36*
X82546365Y-63633284D02*
G01*
X82590129Y-63687750D01*
X82599500Y-63735039D01*
X82599500Y-65065237D01*
X82579815Y-65132276D01*
X82527011Y-65178031D01*
X82457853Y-65187975D01*
X82425764Y-65177375D01*
X82425248Y-65178554D01*
X82420541Y-65176489D01*
X82194786Y-65098988D01*
X82028651Y-65071265D01*
X81959347Y-65059700D01*
X81720653Y-65059700D01*
X81697132Y-65063625D01*
X81485214Y-65098987D01*
X81411775Y-65124199D01*
X81341977Y-65127348D01*
X81283833Y-65094598D01*
X81207505Y-65018270D01*
X81174020Y-64956947D01*
X81171186Y-64930589D01*
X81171186Y-64549410D01*
X81190871Y-64482371D01*
X81207501Y-64461733D01*
X81872416Y-63796817D01*
X81933739Y-63763333D01*
X81960097Y-63760499D01*
X82079168Y-63760499D01*
X82079180Y-63760499D01*
X82115204Y-63757665D01*
X82269393Y-63712869D01*
X82407598Y-63631135D01*
X82407599Y-63631133D01*
X82412379Y-63628307D01*
X82480103Y-63611124D01*
X82546365Y-63633284D01*
G37*
%TD.AperFunction*%
%TA.AperFunction,Conductor*%
G36*
X79953412Y-63828334D02*
G01*
X80009346Y-63870206D01*
X80033763Y-63935670D01*
X80018911Y-64003943D01*
X80017468Y-64006513D01*
X80011110Y-64017525D01*
X80011109Y-64017529D01*
X79970185Y-64170257D01*
X79970185Y-64170259D01*
X79970185Y-64338360D01*
X79970186Y-64338373D01*
X79970186Y-65033592D01*
X79950501Y-65100631D01*
X79897697Y-65146386D01*
X79828539Y-65156330D01*
X79805924Y-65150873D01*
X79654788Y-65098988D01*
X79452528Y-65065237D01*
X79419347Y-65059700D01*
X79180653Y-65059700D01*
X79180652Y-65059700D01*
X79105109Y-65072305D01*
X79035744Y-65063922D01*
X78981923Y-65019369D01*
X78960732Y-64952790D01*
X78960701Y-64949996D01*
X78960701Y-64769895D01*
X78980386Y-64702856D01*
X78997016Y-64682218D01*
X79822400Y-63856833D01*
X79883721Y-63823350D01*
X79953412Y-63828334D01*
G37*
%TD.AperFunction*%
%TA.AperFunction,Conductor*%
G36*
X81387539Y-50445185D02*
G01*
X81433294Y-50497989D01*
X81444500Y-50549500D01*
X81444500Y-51899901D01*
X81424815Y-51966940D01*
X81408181Y-51987582D01*
X80152584Y-53243181D01*
X80091261Y-53276666D01*
X80064903Y-53279500D01*
X74890378Y-53279500D01*
X74823339Y-53259815D01*
X74777584Y-53207011D01*
X74776821Y-53205308D01*
X74771048Y-53192146D01*
X74640493Y-52992317D01*
X74478832Y-52816705D01*
X74338978Y-52707853D01*
X74298166Y-52651143D01*
X74294491Y-52581370D01*
X74329122Y-52520687D01*
X74338979Y-52512146D01*
X74478832Y-52403295D01*
X74640494Y-52227682D01*
X74771047Y-52027856D01*
X74866929Y-51809267D01*
X74925525Y-51577878D01*
X74945236Y-51340000D01*
X74925525Y-51102122D01*
X74874439Y-50900389D01*
X74877063Y-50830572D01*
X74906959Y-50782274D01*
X75227418Y-50461817D01*
X75288740Y-50428334D01*
X75315098Y-50425500D01*
X81320500Y-50425500D01*
X81387539Y-50445185D01*
G37*
%TD.AperFunction*%
%TA.AperFunction,Conductor*%
G36*
X85851904Y-43333071D02*
G01*
X85873809Y-43358350D01*
X85899506Y-43397682D01*
X86061168Y-43573295D01*
X86249530Y-43719902D01*
X86249533Y-43719904D01*
X86374517Y-43787542D01*
X86424108Y-43836761D01*
X86439500Y-43896597D01*
X86439500Y-45033330D01*
X86439499Y-45033348D01*
X86439499Y-45199054D01*
X86439498Y-45199054D01*
X86439499Y-45199057D01*
X86480423Y-45351785D01*
X86480424Y-45351786D01*
X86492277Y-45372318D01*
X86492278Y-45372319D01*
X86559475Y-45488709D01*
X86559481Y-45488717D01*
X86563181Y-45492417D01*
X86596666Y-45553740D01*
X86599500Y-45580097D01*
X86599500Y-45699168D01*
X86599501Y-45699192D01*
X86602335Y-45735205D01*
X86647129Y-45889388D01*
X86647131Y-45889393D01*
X86728863Y-46027595D01*
X86728869Y-46027603D01*
X86842396Y-46141130D01*
X86842400Y-46141133D01*
X86842402Y-46141135D01*
X86980607Y-46222869D01*
X87010904Y-46231671D01*
X87134791Y-46267664D01*
X87134794Y-46267664D01*
X87134796Y-46267665D01*
X87170819Y-46270500D01*
X87289902Y-46270499D01*
X87356941Y-46290183D01*
X87377583Y-46306818D01*
X87403181Y-46332416D01*
X87436666Y-46393739D01*
X87439500Y-46420097D01*
X87439500Y-47654902D01*
X87419815Y-47721941D01*
X87403181Y-47742583D01*
X86232181Y-48913583D01*
X86170858Y-48947068D01*
X86101166Y-48942084D01*
X86045233Y-48900212D01*
X86020816Y-48834748D01*
X86020500Y-48825902D01*
X86020500Y-48469059D01*
X86020501Y-48469046D01*
X86020501Y-48300945D01*
X86020501Y-48300943D01*
X85979577Y-48148215D01*
X85927615Y-48058215D01*
X85900520Y-48011284D01*
X85788716Y-47899480D01*
X85788715Y-47899479D01*
X85784385Y-47895149D01*
X85784374Y-47895139D01*
X84656819Y-46767584D01*
X84623334Y-46706261D01*
X84620500Y-46679903D01*
X84620500Y-46040945D01*
X84620500Y-46040943D01*
X84579577Y-45888216D01*
X84562763Y-45859093D01*
X84500524Y-45751290D01*
X84500521Y-45751286D01*
X84500520Y-45751284D01*
X84388716Y-45639480D01*
X84388715Y-45639479D01*
X84384385Y-45635149D01*
X84384374Y-45635139D01*
X84336915Y-45587680D01*
X84303430Y-45526357D01*
X84308414Y-45456665D01*
X84336911Y-45412323D01*
X84868713Y-44880521D01*
X84868716Y-44880520D01*
X84980520Y-44768716D01*
X85030639Y-44681904D01*
X85059577Y-44631785D01*
X85100501Y-44479057D01*
X85100501Y-44320943D01*
X85100501Y-44313348D01*
X85100500Y-44313330D01*
X85100500Y-43896597D01*
X85120185Y-43829558D01*
X85165483Y-43787542D01*
X85168041Y-43786157D01*
X85290469Y-43719903D01*
X85478832Y-43573295D01*
X85640494Y-43397682D01*
X85666191Y-43358350D01*
X85719337Y-43312993D01*
X85788568Y-43303569D01*
X85851904Y-43333071D01*
G37*
%TD.AperFunction*%
%TA.AperFunction,Conductor*%
G36*
X78231904Y-43333071D02*
G01*
X78253809Y-43358350D01*
X78279506Y-43397682D01*
X78441168Y-43573295D01*
X78629530Y-43719902D01*
X78629533Y-43719904D01*
X78754517Y-43787542D01*
X78804108Y-43836761D01*
X78819500Y-43896597D01*
X78819500Y-44830404D01*
X78799815Y-44897443D01*
X78783181Y-44918085D01*
X78728869Y-44972396D01*
X78728863Y-44972404D01*
X78647131Y-45110606D01*
X78647129Y-45110611D01*
X78602335Y-45264791D01*
X78602334Y-45264797D01*
X78599500Y-45300811D01*
X78599500Y-45520903D01*
X78579815Y-45587942D01*
X78527011Y-45633697D01*
X78457853Y-45643641D01*
X78394297Y-45614616D01*
X78387819Y-45608584D01*
X78286818Y-45507583D01*
X78253333Y-45446260D01*
X78250499Y-45419902D01*
X78250499Y-45300831D01*
X78250498Y-45300806D01*
X78250217Y-45297236D01*
X78247665Y-45264796D01*
X78202869Y-45110607D01*
X78121135Y-44972402D01*
X78121133Y-44972400D01*
X78121130Y-44972396D01*
X78007603Y-44858869D01*
X78007595Y-44858863D01*
X77869393Y-44777131D01*
X77869388Y-44777129D01*
X77715208Y-44732335D01*
X77715202Y-44732334D01*
X77679188Y-44729500D01*
X77679181Y-44729500D01*
X77604500Y-44729500D01*
X77537461Y-44709815D01*
X77491706Y-44657011D01*
X77480500Y-44605500D01*
X77480500Y-43896597D01*
X77500185Y-43829558D01*
X77545483Y-43787542D01*
X77548041Y-43786157D01*
X77670469Y-43719903D01*
X77858832Y-43573295D01*
X78020494Y-43397682D01*
X78046191Y-43358350D01*
X78099337Y-43312993D01*
X78168568Y-43303569D01*
X78231904Y-43333071D01*
G37*
%TD.AperFunction*%
%TA.AperFunction,Conductor*%
G36*
X80771904Y-43333071D02*
G01*
X80793809Y-43358350D01*
X80819506Y-43397682D01*
X80981168Y-43573295D01*
X81169530Y-43719902D01*
X81169533Y-43719904D01*
X81294517Y-43787542D01*
X81344108Y-43836761D01*
X81359500Y-43896597D01*
X81359500Y-44605500D01*
X81339815Y-44672539D01*
X81287011Y-44718294D01*
X81235502Y-44729500D01*
X81160831Y-44729500D01*
X81160807Y-44729501D01*
X81124794Y-44732335D01*
X80970611Y-44777129D01*
X80970606Y-44777131D01*
X80832404Y-44858863D01*
X80832396Y-44858869D01*
X80718869Y-44972396D01*
X80718863Y-44972404D01*
X80637131Y-45110606D01*
X80637129Y-45110611D01*
X80592335Y-45264791D01*
X80592334Y-45264797D01*
X80589500Y-45300811D01*
X80589500Y-45520903D01*
X80569815Y-45587942D01*
X80517011Y-45633697D01*
X80447853Y-45643641D01*
X80384297Y-45614616D01*
X80377819Y-45608584D01*
X80276818Y-45507583D01*
X80243333Y-45446260D01*
X80240499Y-45419902D01*
X80240499Y-45300831D01*
X80240498Y-45300806D01*
X80240217Y-45297236D01*
X80237665Y-45264796D01*
X80192869Y-45110607D01*
X80111135Y-44972402D01*
X80111133Y-44972400D01*
X80111130Y-44972396D01*
X80056819Y-44918085D01*
X80023334Y-44856762D01*
X80020500Y-44830404D01*
X80020500Y-43896597D01*
X80040185Y-43829558D01*
X80085483Y-43787542D01*
X80088041Y-43786157D01*
X80210469Y-43719903D01*
X80398832Y-43573295D01*
X80560494Y-43397682D01*
X80586191Y-43358350D01*
X80639337Y-43312993D01*
X80708568Y-43303569D01*
X80771904Y-43333071D01*
G37*
%TD.AperFunction*%
%TA.AperFunction,Conductor*%
G36*
X90931904Y-43333071D02*
G01*
X90953809Y-43358350D01*
X90979506Y-43397682D01*
X91141168Y-43573295D01*
X91329530Y-43719902D01*
X91329533Y-43719904D01*
X91454517Y-43787542D01*
X91504108Y-43836761D01*
X91519500Y-43896597D01*
X91519500Y-44479901D01*
X91499815Y-44546940D01*
X91483181Y-44567583D01*
X91357581Y-44693182D01*
X91296258Y-44726666D01*
X91269901Y-44729500D01*
X91150831Y-44729500D01*
X91150807Y-44729501D01*
X91114794Y-44732335D01*
X90960611Y-44777129D01*
X90960606Y-44777131D01*
X90822404Y-44858863D01*
X90822396Y-44858869D01*
X90708869Y-44972396D01*
X90708863Y-44972404D01*
X90627131Y-45110606D01*
X90627129Y-45110611D01*
X90582335Y-45264791D01*
X90582334Y-45264797D01*
X90579500Y-45300811D01*
X90579500Y-45419901D01*
X90559815Y-45486940D01*
X90543184Y-45507578D01*
X90492680Y-45558083D01*
X90442180Y-45608583D01*
X90380856Y-45642067D01*
X90311165Y-45637083D01*
X90255232Y-45595211D01*
X90230815Y-45529746D01*
X90230499Y-45520916D01*
X90230499Y-45300820D01*
X90227665Y-45264796D01*
X90185424Y-45119400D01*
X90180500Y-45084805D01*
X90180500Y-43896597D01*
X90200185Y-43829558D01*
X90245483Y-43787542D01*
X90248041Y-43786157D01*
X90370469Y-43719903D01*
X90558832Y-43573295D01*
X90720494Y-43397682D01*
X90746191Y-43358350D01*
X90799337Y-43312993D01*
X90868568Y-43303569D01*
X90931904Y-43333071D01*
G37*
%TD.AperFunction*%
%TA.AperFunction,Conductor*%
G36*
X83311904Y-43333071D02*
G01*
X83333809Y-43358350D01*
X83359506Y-43397682D01*
X83521168Y-43573295D01*
X83709530Y-43719902D01*
X83709533Y-43719904D01*
X83834517Y-43787542D01*
X83884108Y-43836761D01*
X83899500Y-43896597D01*
X83899500Y-44099902D01*
X83879815Y-44166941D01*
X83863181Y-44187583D01*
X83357582Y-44693181D01*
X83296259Y-44726666D01*
X83269902Y-44729500D01*
X83150831Y-44729500D01*
X83150807Y-44729501D01*
X83114794Y-44732335D01*
X82960611Y-44777129D01*
X82960606Y-44777131D01*
X82822404Y-44858863D01*
X82822396Y-44858869D01*
X82772181Y-44909085D01*
X82710858Y-44942570D01*
X82641166Y-44937586D01*
X82585233Y-44895714D01*
X82560816Y-44830250D01*
X82560500Y-44821404D01*
X82560500Y-43896597D01*
X82580185Y-43829558D01*
X82625483Y-43787542D01*
X82628041Y-43786157D01*
X82750469Y-43719903D01*
X82938832Y-43573295D01*
X83100494Y-43397682D01*
X83126191Y-43358350D01*
X83179337Y-43312993D01*
X83248568Y-43303569D01*
X83311904Y-43333071D01*
G37*
%TD.AperFunction*%
%TA.AperFunction,Conductor*%
G36*
X93471904Y-43333071D02*
G01*
X93493809Y-43358350D01*
X93519506Y-43397682D01*
X93681168Y-43573295D01*
X93869530Y-43719902D01*
X93869533Y-43719904D01*
X93994517Y-43787542D01*
X94044108Y-43836761D01*
X94059500Y-43896597D01*
X94059500Y-43929902D01*
X94039815Y-43996941D01*
X94023181Y-44017583D01*
X93347582Y-44693181D01*
X93286259Y-44726666D01*
X93259902Y-44729500D01*
X93140831Y-44729500D01*
X93140807Y-44729501D01*
X93104794Y-44732335D01*
X92950611Y-44777129D01*
X92950602Y-44777133D01*
X92907621Y-44802552D01*
X92839897Y-44819735D01*
X92773635Y-44797575D01*
X92729872Y-44743108D01*
X92722691Y-44706872D01*
X92721259Y-44707032D01*
X92721258Y-44707023D01*
X92720690Y-44696778D01*
X92720501Y-44695820D01*
X92720501Y-44693347D01*
X92720500Y-44693329D01*
X92720500Y-43896597D01*
X92740185Y-43829558D01*
X92785483Y-43787542D01*
X92788041Y-43786157D01*
X92910469Y-43719903D01*
X93098832Y-43573295D01*
X93260494Y-43397682D01*
X93286191Y-43358350D01*
X93339337Y-43312993D01*
X93408568Y-43303569D01*
X93471904Y-43333071D01*
G37*
%TD.AperFunction*%
%TA.AperFunction,Conductor*%
G36*
X97442539Y-39520185D02*
G01*
X97488294Y-39572989D01*
X97499500Y-39624500D01*
X97499500Y-69375500D01*
X97479815Y-69442539D01*
X97427011Y-69488294D01*
X97375500Y-69499500D01*
X69124500Y-69499500D01*
X69057461Y-69479815D01*
X69011706Y-69427011D01*
X69000500Y-69375500D01*
X69000500Y-65644740D01*
X69899498Y-65644740D01*
X69940423Y-65797472D01*
X69944509Y-65804548D01*
X69948891Y-65812137D01*
X69948893Y-65812146D01*
X69948896Y-65812145D01*
X69948897Y-65812147D01*
X70019479Y-65934400D01*
X70019481Y-65934403D01*
X70138349Y-66053271D01*
X70138355Y-66053276D01*
X72849453Y-68764374D01*
X72849463Y-68764385D01*
X72853793Y-68768715D01*
X72853794Y-68768716D01*
X72965598Y-68880520D01*
X73052409Y-68930639D01*
X73052411Y-68930641D01*
X73102527Y-68959576D01*
X73102529Y-68959577D01*
X73255256Y-69000500D01*
X73255257Y-69000500D01*
X94513331Y-69000500D01*
X94513347Y-69000501D01*
X94520943Y-69000501D01*
X94679054Y-69000501D01*
X94679057Y-69000501D01*
X94831785Y-68959577D01*
X94881904Y-68930639D01*
X94968716Y-68880520D01*
X95080520Y-68768716D01*
X95080520Y-68768714D01*
X95090728Y-68758507D01*
X95090730Y-68758504D01*
X96148513Y-67700721D01*
X96148516Y-67700720D01*
X96260320Y-67588916D01*
X96310439Y-67502104D01*
X96339377Y-67451985D01*
X96380300Y-67299257D01*
X96380300Y-67141143D01*
X96380300Y-63868859D01*
X96380301Y-63868846D01*
X96380301Y-63700745D01*
X96380301Y-63700743D01*
X96339377Y-63548015D01*
X96310439Y-63497895D01*
X96260320Y-63411084D01*
X96148516Y-63299280D01*
X96148515Y-63299279D01*
X96144185Y-63294949D01*
X96144174Y-63294939D01*
X90687590Y-57838355D01*
X90687588Y-57838352D01*
X90568717Y-57719481D01*
X90568716Y-57719480D01*
X90481904Y-57669360D01*
X90481904Y-57669359D01*
X90481900Y-57669358D01*
X90431785Y-57640423D01*
X90279057Y-57599499D01*
X90120943Y-57599499D01*
X90113347Y-57599499D01*
X90113331Y-57599500D01*
X89519499Y-57599500D01*
X89452460Y-57579815D01*
X89406705Y-57527011D01*
X89395499Y-57475500D01*
X89395499Y-57277129D01*
X89395498Y-57277123D01*
X89395497Y-57277116D01*
X89389091Y-57217517D01*
X89378019Y-57187832D01*
X89338797Y-57082671D01*
X89338793Y-57082664D01*
X89252547Y-56967455D01*
X89252544Y-56967452D01*
X89137335Y-56881206D01*
X89137328Y-56881202D01*
X89002486Y-56830910D01*
X89002485Y-56830909D01*
X89002483Y-56830909D01*
X88942873Y-56824500D01*
X88942863Y-56824500D01*
X88397130Y-56824500D01*
X88397119Y-56824501D01*
X88358253Y-56828679D01*
X88331748Y-56828679D01*
X88292874Y-56824500D01*
X87747130Y-56824500D01*
X87747119Y-56824501D01*
X87708253Y-56828679D01*
X87681748Y-56828679D01*
X87642874Y-56824500D01*
X87097130Y-56824500D01*
X87097119Y-56824501D01*
X87058253Y-56828679D01*
X87031748Y-56828679D01*
X86992874Y-56824500D01*
X86447130Y-56824500D01*
X86447119Y-56824501D01*
X86408253Y-56828679D01*
X86381748Y-56828679D01*
X86342874Y-56824500D01*
X85797130Y-56824500D01*
X85797119Y-56824501D01*
X85758253Y-56828679D01*
X85731748Y-56828679D01*
X85692874Y-56824500D01*
X85147130Y-56824500D01*
X85147119Y-56824501D01*
X85108253Y-56828679D01*
X85081748Y-56828679D01*
X85042874Y-56824500D01*
X84497130Y-56824500D01*
X84497119Y-56824501D01*
X84458253Y-56828679D01*
X84431748Y-56828679D01*
X84392874Y-56824500D01*
X83847130Y-56824500D01*
X83847119Y-56824501D01*
X83808253Y-56828679D01*
X83781748Y-56828679D01*
X83742874Y-56824500D01*
X83197129Y-56824500D01*
X83197123Y-56824501D01*
X83137516Y-56830908D01*
X83002671Y-56881202D01*
X83002664Y-56881206D01*
X82918201Y-56944435D01*
X82852737Y-56968852D01*
X82784464Y-56954000D01*
X82735059Y-56904595D01*
X82729795Y-56893593D01*
X82650524Y-56756290D01*
X82650518Y-56756282D01*
X81952590Y-56058355D01*
X81952588Y-56058352D01*
X81886617Y-55992381D01*
X81853132Y-55931058D01*
X81858116Y-55861366D01*
X81899988Y-55805433D01*
X81965452Y-55781016D01*
X81974298Y-55780700D01*
X85478131Y-55780700D01*
X85478147Y-55780701D01*
X85485743Y-55780701D01*
X85643854Y-55780701D01*
X85643857Y-55780701D01*
X85796585Y-55739777D01*
X85855161Y-55705958D01*
X85933516Y-55660720D01*
X86045320Y-55548916D01*
X86045320Y-55548914D01*
X86055524Y-55538711D01*
X86055528Y-55538706D01*
X89038713Y-52555521D01*
X89038716Y-52555520D01*
X89150520Y-52443716D01*
X89200639Y-52356904D01*
X89229577Y-52306785D01*
X89241567Y-52262033D01*
X89262076Y-52219816D01*
X89338793Y-52117335D01*
X89338792Y-52117335D01*
X89338796Y-52117331D01*
X89389091Y-51982483D01*
X89395500Y-51922873D01*
X89395499Y-50395097D01*
X89415184Y-50328059D01*
X89431818Y-50307416D01*
X89433711Y-50305522D01*
X89433716Y-50305520D01*
X89545520Y-50193716D01*
X89545521Y-50193713D01*
X93432417Y-46306818D01*
X93493740Y-46273333D01*
X93520098Y-46270499D01*
X93639168Y-46270499D01*
X93639180Y-46270499D01*
X93675204Y-46267665D01*
X93829393Y-46222869D01*
X93967598Y-46141135D01*
X94081135Y-46027598D01*
X94162869Y-45889393D01*
X94207665Y-45735204D01*
X94210500Y-45699181D01*
X94210499Y-45580095D01*
X94230183Y-45513057D01*
X94246813Y-45492420D01*
X95018506Y-44720728D01*
X95018511Y-44720724D01*
X95028714Y-44710520D01*
X95028716Y-44710520D01*
X95140520Y-44598716D01*
X95209605Y-44479057D01*
X95219577Y-44461785D01*
X95260500Y-44309058D01*
X95260500Y-44150943D01*
X95260500Y-43896597D01*
X95280185Y-43829558D01*
X95325483Y-43787542D01*
X95328041Y-43786157D01*
X95450469Y-43719903D01*
X95638832Y-43573295D01*
X95800494Y-43397682D01*
X95931047Y-43197856D01*
X96026929Y-42979267D01*
X96085525Y-42747878D01*
X96105236Y-42510000D01*
X96085525Y-42272122D01*
X96026929Y-42040733D01*
X95931047Y-41822144D01*
X95800494Y-41622318D01*
X95638832Y-41446705D01*
X95450469Y-41300097D01*
X95354152Y-41247972D01*
X95240546Y-41186491D01*
X95240541Y-41186489D01*
X95014786Y-41108988D01*
X94857826Y-41082796D01*
X94779347Y-41069700D01*
X94540653Y-41069700D01*
X94481793Y-41079522D01*
X94305213Y-41108988D01*
X94079458Y-41186489D01*
X94079453Y-41186491D01*
X93869529Y-41300098D01*
X93681169Y-41446704D01*
X93519508Y-41622315D01*
X93493808Y-41661652D01*
X93440661Y-41707008D01*
X93371430Y-41716431D01*
X93308094Y-41686928D01*
X93286192Y-41661652D01*
X93260494Y-41622318D01*
X93098832Y-41446705D01*
X92910469Y-41300097D01*
X92814152Y-41247972D01*
X92700546Y-41186491D01*
X92700541Y-41186489D01*
X92474786Y-41108988D01*
X92317826Y-41082796D01*
X92239347Y-41069700D01*
X92000653Y-41069700D01*
X91941793Y-41079522D01*
X91765213Y-41108988D01*
X91539458Y-41186489D01*
X91539453Y-41186491D01*
X91329529Y-41300098D01*
X91141169Y-41446704D01*
X90979508Y-41622315D01*
X90953808Y-41661652D01*
X90900661Y-41707008D01*
X90831430Y-41716431D01*
X90768094Y-41686928D01*
X90746192Y-41661652D01*
X90720494Y-41622318D01*
X90558832Y-41446705D01*
X90370469Y-41300097D01*
X90274152Y-41247972D01*
X90160546Y-41186491D01*
X90160541Y-41186489D01*
X89934786Y-41108988D01*
X89777826Y-41082796D01*
X89699347Y-41069700D01*
X89460653Y-41069700D01*
X89401793Y-41079522D01*
X89225213Y-41108988D01*
X88999458Y-41186489D01*
X88999453Y-41186491D01*
X88789529Y-41300098D01*
X88601169Y-41446704D01*
X88439508Y-41622315D01*
X88413808Y-41661652D01*
X88360661Y-41707008D01*
X88291430Y-41716431D01*
X88228094Y-41686928D01*
X88206192Y-41661652D01*
X88180494Y-41622318D01*
X88018832Y-41446705D01*
X87830469Y-41300097D01*
X87734152Y-41247972D01*
X87620546Y-41186491D01*
X87620541Y-41186489D01*
X87394786Y-41108988D01*
X87237826Y-41082796D01*
X87159347Y-41069700D01*
X86920653Y-41069700D01*
X86861793Y-41079522D01*
X86685213Y-41108988D01*
X86459458Y-41186489D01*
X86459453Y-41186491D01*
X86249529Y-41300098D01*
X86061169Y-41446704D01*
X85899508Y-41622315D01*
X85873808Y-41661652D01*
X85820661Y-41707008D01*
X85751430Y-41716431D01*
X85688094Y-41686928D01*
X85666192Y-41661652D01*
X85640494Y-41622318D01*
X85478832Y-41446705D01*
X85290469Y-41300097D01*
X85194152Y-41247972D01*
X85080546Y-41186491D01*
X85080541Y-41186489D01*
X84854786Y-41108988D01*
X84697826Y-41082796D01*
X84619347Y-41069700D01*
X84380653Y-41069700D01*
X84321793Y-41079522D01*
X84145213Y-41108988D01*
X83919458Y-41186489D01*
X83919453Y-41186491D01*
X83709529Y-41300098D01*
X83521169Y-41446704D01*
X83359508Y-41622315D01*
X83333808Y-41661652D01*
X83280661Y-41707008D01*
X83211430Y-41716431D01*
X83148094Y-41686928D01*
X83126192Y-41661652D01*
X83100494Y-41622318D01*
X82938832Y-41446705D01*
X82750469Y-41300097D01*
X82654152Y-41247972D01*
X82540546Y-41186491D01*
X82540541Y-41186489D01*
X82314786Y-41108988D01*
X82157826Y-41082796D01*
X82079347Y-41069700D01*
X81840653Y-41069700D01*
X81781793Y-41079522D01*
X81605213Y-41108988D01*
X81379458Y-41186489D01*
X81379453Y-41186491D01*
X81169529Y-41300098D01*
X80981169Y-41446704D01*
X80819508Y-41622315D01*
X80793808Y-41661652D01*
X80740661Y-41707008D01*
X80671430Y-41716431D01*
X80608094Y-41686928D01*
X80586192Y-41661652D01*
X80560494Y-41622318D01*
X80398832Y-41446705D01*
X80210469Y-41300097D01*
X80114152Y-41247972D01*
X80000546Y-41186491D01*
X80000541Y-41186489D01*
X79774786Y-41108988D01*
X79617826Y-41082796D01*
X79539347Y-41069700D01*
X79300653Y-41069700D01*
X79241793Y-41079522D01*
X79065213Y-41108988D01*
X78839458Y-41186489D01*
X78839453Y-41186491D01*
X78629529Y-41300098D01*
X78441169Y-41446704D01*
X78279508Y-41622315D01*
X78253808Y-41661652D01*
X78200661Y-41707008D01*
X78131430Y-41716431D01*
X78068094Y-41686928D01*
X78046192Y-41661652D01*
X78020494Y-41622318D01*
X77858832Y-41446705D01*
X77670469Y-41300097D01*
X77574152Y-41247972D01*
X77460546Y-41186491D01*
X77460541Y-41186489D01*
X77234786Y-41108988D01*
X77077826Y-41082796D01*
X76999347Y-41069700D01*
X76760653Y-41069700D01*
X76701793Y-41079522D01*
X76525213Y-41108988D01*
X76299458Y-41186489D01*
X76299453Y-41186491D01*
X76089529Y-41300098D01*
X75901169Y-41446704D01*
X75739506Y-41622317D01*
X75608951Y-41822147D01*
X75513070Y-42040732D01*
X75454475Y-42272118D01*
X75454473Y-42272130D01*
X75434764Y-42509994D01*
X75434764Y-42510005D01*
X75454473Y-42747869D01*
X75454475Y-42747881D01*
X75513070Y-42979267D01*
X75608951Y-43197852D01*
X75608953Y-43197856D01*
X75739506Y-43397682D01*
X75901168Y-43573295D01*
X76089530Y-43719902D01*
X76089533Y-43719904D01*
X76214517Y-43787542D01*
X76264108Y-43836761D01*
X76279500Y-43896597D01*
X76279500Y-44863330D01*
X76279499Y-44863348D01*
X76279499Y-45029054D01*
X76279498Y-45029054D01*
X76279499Y-45029057D01*
X76320423Y-45181785D01*
X76329036Y-45196704D01*
X76330394Y-45199055D01*
X76330395Y-45199057D01*
X76399477Y-45318712D01*
X76399481Y-45318717D01*
X76518349Y-45437585D01*
X76518355Y-45437590D01*
X76573181Y-45492416D01*
X76606666Y-45553739D01*
X76609500Y-45580096D01*
X76609500Y-45699168D01*
X76609501Y-45699192D01*
X76612335Y-45735205D01*
X76657129Y-45889388D01*
X76657131Y-45889393D01*
X76738863Y-46027595D01*
X76738869Y-46027603D01*
X76852396Y-46141130D01*
X76852400Y-46141133D01*
X76852402Y-46141135D01*
X76990607Y-46222869D01*
X77020904Y-46231671D01*
X77144791Y-46267664D01*
X77144794Y-46267664D01*
X77144796Y-46267665D01*
X77180819Y-46270500D01*
X77299902Y-46270499D01*
X77366941Y-46290183D01*
X77387583Y-46306818D01*
X80093584Y-49012819D01*
X80127069Y-49074142D01*
X80122085Y-49143834D01*
X80080213Y-49199767D01*
X80014749Y-49224184D01*
X80005903Y-49224500D01*
X75101670Y-49224500D01*
X75101654Y-49224499D01*
X75094058Y-49224499D01*
X74935943Y-49224499D01*
X74859579Y-49244961D01*
X74783214Y-49265423D01*
X74783209Y-49265426D01*
X74646290Y-49344475D01*
X74646282Y-49344481D01*
X74056165Y-49934597D01*
X73994842Y-49968082D01*
X73928223Y-49964198D01*
X73854784Y-49938988D01*
X73619347Y-49899700D01*
X73380653Y-49899700D01*
X73321793Y-49909522D01*
X73145213Y-49938988D01*
X72919458Y-50016489D01*
X72919453Y-50016491D01*
X72709529Y-50130098D01*
X72521169Y-50276704D01*
X72359506Y-50452317D01*
X72228951Y-50652147D01*
X72133070Y-50870732D01*
X72074475Y-51102118D01*
X72074473Y-51102130D01*
X72054764Y-51339994D01*
X72054764Y-51340005D01*
X72074473Y-51577869D01*
X72074475Y-51577881D01*
X72133070Y-51809267D01*
X72211287Y-51987582D01*
X72228953Y-52027856D01*
X72359506Y-52227682D01*
X72521168Y-52403295D01*
X72521171Y-52403297D01*
X72521174Y-52403300D01*
X72661020Y-52512147D01*
X72701833Y-52568857D01*
X72705508Y-52638630D01*
X72670876Y-52699313D01*
X72661020Y-52707853D01*
X72521174Y-52816699D01*
X72521171Y-52816702D01*
X72359506Y-52992317D01*
X72228951Y-53192147D01*
X72133070Y-53410732D01*
X72074475Y-53642118D01*
X72074473Y-53642130D01*
X72054764Y-53879994D01*
X72054764Y-53880005D01*
X72074473Y-54117869D01*
X72074475Y-54117881D01*
X72133070Y-54349267D01*
X72228953Y-54567857D01*
X72359504Y-54767679D01*
X72359512Y-54767690D01*
X72370106Y-54779197D01*
X72401030Y-54841851D01*
X72393171Y-54911277D01*
X72366559Y-54950862D01*
X71491486Y-55825936D01*
X71379681Y-55937740D01*
X71379677Y-55937745D01*
X71331887Y-56020522D01*
X71281320Y-56068737D01*
X71212714Y-56081961D01*
X71147849Y-56055993D01*
X71107320Y-55999079D01*
X71100500Y-55958522D01*
X71100500Y-49560097D01*
X71120185Y-49493058D01*
X71136819Y-49472416D01*
X71829757Y-48779478D01*
X72943835Y-47665399D01*
X73005156Y-47631916D01*
X73071777Y-47635801D01*
X73117036Y-47651338D01*
X73145216Y-47661012D01*
X73380653Y-47700300D01*
X73380654Y-47700300D01*
X73619346Y-47700300D01*
X73619347Y-47700300D01*
X73854784Y-47661012D01*
X74080545Y-47583509D01*
X74290469Y-47469903D01*
X74478832Y-47323295D01*
X74640494Y-47147682D01*
X74771047Y-46947856D01*
X74866929Y-46729267D01*
X74925525Y-46497878D01*
X74926219Y-46489500D01*
X74945236Y-46260005D01*
X74945236Y-46259994D01*
X74925526Y-46022130D01*
X74925524Y-46022118D01*
X74866929Y-45790732D01*
X74799532Y-45637083D01*
X74771047Y-45572144D01*
X74640494Y-45372318D01*
X74478832Y-45196705D01*
X74290469Y-45050097D01*
X74146906Y-44972404D01*
X74080546Y-44936491D01*
X74080541Y-44936489D01*
X73854786Y-44858988D01*
X73629558Y-44821404D01*
X73619347Y-44819700D01*
X73380653Y-44819700D01*
X73370442Y-44821404D01*
X73145213Y-44858988D01*
X72919458Y-44936489D01*
X72919453Y-44936491D01*
X72709529Y-45050098D01*
X72521169Y-45196704D01*
X72359506Y-45372317D01*
X72228951Y-45572147D01*
X72133070Y-45790732D01*
X72074475Y-46022118D01*
X72074473Y-46022130D01*
X72054764Y-46259994D01*
X72054764Y-46260005D01*
X72074473Y-46497869D01*
X72074475Y-46497881D01*
X72125560Y-46699607D01*
X72122935Y-46769427D01*
X72093035Y-46817728D01*
X70131286Y-48779478D01*
X70019481Y-48891282D01*
X70019479Y-48891285D01*
X69969361Y-48978094D01*
X69969359Y-48978096D01*
X69940425Y-49028209D01*
X69940424Y-49028210D01*
X69940423Y-49028215D01*
X69899499Y-49180943D01*
X69899499Y-49180945D01*
X69899499Y-49349046D01*
X69899500Y-49349059D01*
X69899500Y-65479016D01*
X69899499Y-65479034D01*
X69899499Y-65644740D01*
X69899498Y-65644740D01*
X69000500Y-65644740D01*
X69000500Y-39624500D01*
X69020185Y-39557461D01*
X69072989Y-39511706D01*
X69124500Y-39500500D01*
X97375500Y-39500500D01*
X97442539Y-39520185D01*
G37*
%TD.AperFunction*%
%TD*%
M02*
