%TF.GenerationSoftware,KiCad,Pcbnew,8.0.1*%
%TF.CreationDate,2024-07-31T22:53:36-04:00*%
%TF.ProjectId,Sensor_manager_V1_glove,53656e73-6f72-45f6-9d61-6e616765725f,rev?*%
%TF.SameCoordinates,Original*%
%TF.FileFunction,Copper,L2,Bot*%
%TF.FilePolarity,Positive*%
%FSLAX46Y46*%
G04 Gerber Fmt 4.6, Leading zero omitted, Abs format (unit mm)*
G04 Created by KiCad (PCBNEW 8.0.1) date 2024-07-31 22:53:36*
%MOMM*%
%LPD*%
G01*
G04 APERTURE LIST*
%TA.AperFunction,ComponentPad*%
%ADD10C,1.879600*%
%TD*%
G04 APERTURE END LIST*
D10*
%TO.P,J3,7,Pin_7*%
%TO.N,/VCC*%
X73500000Y-46260000D03*
%TO.P,J3,6,Pin_6*%
%TO.N,/GND*%
X73500000Y-48800000D03*
%TO.P,J3,5,Pin_5*%
%TO.N,/S1*%
X73500000Y-51340000D03*
%TO.P,J3,4,Pin_4*%
%TO.N,/S2*%
X73500000Y-53880000D03*
%TO.P,J3,3,Pin_3*%
%TO.N,/S3*%
X73500000Y-56420000D03*
%TO.P,J3,2,Pin_2*%
%TO.N,/S4*%
X73500000Y-58960000D03*
%TO.P,J3,1,Pin_1*%
%TO.N,/OUT*%
X73500000Y-61500000D03*
%TD*%
%TO.P,J2,8,Pin_8*%
%TO.N,/IN15*%
X76760000Y-66500000D03*
%TO.P,J2,7,Pin_7*%
%TO.N,/IN14*%
X79300000Y-66500000D03*
%TO.P,J2,6,Pin_6*%
%TO.N,/IN13*%
X81840000Y-66500000D03*
%TO.P,J2,5,Pin_5*%
%TO.N,/IN12*%
X84380000Y-66500000D03*
%TO.P,J2,4,Pin_4*%
%TO.N,/IN11*%
X86920000Y-66500000D03*
%TO.P,J2,3,Pin_3*%
%TO.N,/IN10*%
X89460000Y-66500000D03*
%TO.P,J2,2,Pin_2*%
%TO.N,/IN9*%
X92000000Y-66500000D03*
%TO.P,J2,1,Pin_1*%
%TO.N,/IN8*%
X94540000Y-66500000D03*
%TD*%
%TO.P,J1,8,Pin_8*%
%TO.N,/IN7*%
X94660000Y-42510000D03*
%TO.P,J1,7,Pin_7*%
%TO.N,/IN6*%
X92120000Y-42510000D03*
%TO.P,J1,6,Pin_6*%
%TO.N,/IN5*%
X89580000Y-42510000D03*
%TO.P,J1,5,Pin_5*%
%TO.N,/IN4*%
X87040000Y-42510000D03*
%TO.P,J1,4,Pin_4*%
%TO.N,/IN3*%
X84500000Y-42510000D03*
%TO.P,J1,3,Pin_3*%
%TO.N,/IN2*%
X81960000Y-42510000D03*
%TO.P,J1,2,Pin_2*%
%TO.N,/IN1*%
X79420000Y-42510000D03*
%TO.P,J1,1,Pin_1*%
%TO.N,/IN0*%
X76880000Y-42510000D03*
%TD*%
%TA.AperFunction,Conductor*%
%TO.N,/GND*%
G36*
X97442539Y-39520185D02*
G01*
X97488294Y-39572989D01*
X97499500Y-39624500D01*
X97499500Y-69375500D01*
X97479815Y-69442539D01*
X97427011Y-69488294D01*
X97375500Y-69499500D01*
X69124500Y-69499500D01*
X69057461Y-69479815D01*
X69011706Y-69427011D01*
X69000500Y-69375500D01*
X69000500Y-66500005D01*
X75314764Y-66500005D01*
X75334473Y-66737869D01*
X75334475Y-66737881D01*
X75393070Y-66969267D01*
X75488951Y-67187852D01*
X75488953Y-67187856D01*
X75619506Y-67387682D01*
X75781168Y-67563295D01*
X75969531Y-67709903D01*
X76179455Y-67823509D01*
X76405216Y-67901012D01*
X76640653Y-67940300D01*
X76640654Y-67940300D01*
X76879346Y-67940300D01*
X76879347Y-67940300D01*
X77114784Y-67901012D01*
X77340545Y-67823509D01*
X77550469Y-67709903D01*
X77738832Y-67563295D01*
X77900494Y-67387682D01*
X77926191Y-67348350D01*
X77979337Y-67302993D01*
X78048568Y-67293569D01*
X78111904Y-67323071D01*
X78133809Y-67348350D01*
X78159506Y-67387682D01*
X78321168Y-67563295D01*
X78509531Y-67709903D01*
X78719455Y-67823509D01*
X78945216Y-67901012D01*
X79180653Y-67940300D01*
X79180654Y-67940300D01*
X79419346Y-67940300D01*
X79419347Y-67940300D01*
X79654784Y-67901012D01*
X79880545Y-67823509D01*
X80090469Y-67709903D01*
X80278832Y-67563295D01*
X80440494Y-67387682D01*
X80466191Y-67348350D01*
X80519337Y-67302993D01*
X80588568Y-67293569D01*
X80651904Y-67323071D01*
X80673809Y-67348350D01*
X80699506Y-67387682D01*
X80861168Y-67563295D01*
X81049531Y-67709903D01*
X81259455Y-67823509D01*
X81485216Y-67901012D01*
X81720653Y-67940300D01*
X81720654Y-67940300D01*
X81959346Y-67940300D01*
X81959347Y-67940300D01*
X82194784Y-67901012D01*
X82420545Y-67823509D01*
X82630469Y-67709903D01*
X82818832Y-67563295D01*
X82980494Y-67387682D01*
X83006191Y-67348350D01*
X83059337Y-67302993D01*
X83128568Y-67293569D01*
X83191904Y-67323071D01*
X83213809Y-67348350D01*
X83239506Y-67387682D01*
X83401168Y-67563295D01*
X83589531Y-67709903D01*
X83799455Y-67823509D01*
X84025216Y-67901012D01*
X84260653Y-67940300D01*
X84260654Y-67940300D01*
X84499346Y-67940300D01*
X84499347Y-67940300D01*
X84734784Y-67901012D01*
X84960545Y-67823509D01*
X85170469Y-67709903D01*
X85358832Y-67563295D01*
X85520494Y-67387682D01*
X85546191Y-67348350D01*
X85599337Y-67302993D01*
X85668568Y-67293569D01*
X85731904Y-67323071D01*
X85753809Y-67348350D01*
X85779506Y-67387682D01*
X85941168Y-67563295D01*
X86129531Y-67709903D01*
X86339455Y-67823509D01*
X86565216Y-67901012D01*
X86800653Y-67940300D01*
X86800654Y-67940300D01*
X87039346Y-67940300D01*
X87039347Y-67940300D01*
X87274784Y-67901012D01*
X87500545Y-67823509D01*
X87710469Y-67709903D01*
X87898832Y-67563295D01*
X88060494Y-67387682D01*
X88086191Y-67348350D01*
X88139337Y-67302993D01*
X88208568Y-67293569D01*
X88271904Y-67323071D01*
X88293809Y-67348350D01*
X88319506Y-67387682D01*
X88481168Y-67563295D01*
X88669531Y-67709903D01*
X88879455Y-67823509D01*
X89105216Y-67901012D01*
X89340653Y-67940300D01*
X89340654Y-67940300D01*
X89579346Y-67940300D01*
X89579347Y-67940300D01*
X89814784Y-67901012D01*
X90040545Y-67823509D01*
X90250469Y-67709903D01*
X90438832Y-67563295D01*
X90600494Y-67387682D01*
X90626191Y-67348350D01*
X90679337Y-67302993D01*
X90748568Y-67293569D01*
X90811904Y-67323071D01*
X90833809Y-67348350D01*
X90859506Y-67387682D01*
X91021168Y-67563295D01*
X91209531Y-67709903D01*
X91419455Y-67823509D01*
X91645216Y-67901012D01*
X91880653Y-67940300D01*
X91880654Y-67940300D01*
X92119346Y-67940300D01*
X92119347Y-67940300D01*
X92354784Y-67901012D01*
X92580545Y-67823509D01*
X92790469Y-67709903D01*
X92978832Y-67563295D01*
X93140494Y-67387682D01*
X93166191Y-67348350D01*
X93219337Y-67302993D01*
X93288568Y-67293569D01*
X93351904Y-67323071D01*
X93373809Y-67348350D01*
X93399506Y-67387682D01*
X93561168Y-67563295D01*
X93749531Y-67709903D01*
X93959455Y-67823509D01*
X94185216Y-67901012D01*
X94420653Y-67940300D01*
X94420654Y-67940300D01*
X94659346Y-67940300D01*
X94659347Y-67940300D01*
X94894784Y-67901012D01*
X95120545Y-67823509D01*
X95330469Y-67709903D01*
X95518832Y-67563295D01*
X95680494Y-67387682D01*
X95811047Y-67187856D01*
X95906929Y-66969267D01*
X95965525Y-66737878D01*
X95985236Y-66500000D01*
X95965525Y-66262122D01*
X95906929Y-66030733D01*
X95811047Y-65812144D01*
X95680494Y-65612318D01*
X95518832Y-65436705D01*
X95330469Y-65290097D01*
X95234152Y-65237972D01*
X95120546Y-65176491D01*
X95120541Y-65176489D01*
X94894786Y-65098988D01*
X94737826Y-65072796D01*
X94659347Y-65059700D01*
X94420653Y-65059700D01*
X94361793Y-65069522D01*
X94185213Y-65098988D01*
X93959458Y-65176489D01*
X93959453Y-65176491D01*
X93749529Y-65290098D01*
X93561169Y-65436704D01*
X93399508Y-65612315D01*
X93373808Y-65651652D01*
X93320661Y-65697008D01*
X93251430Y-65706431D01*
X93188094Y-65676928D01*
X93166192Y-65651652D01*
X93140494Y-65612318D01*
X92978832Y-65436705D01*
X92790469Y-65290097D01*
X92694152Y-65237972D01*
X92580546Y-65176491D01*
X92580541Y-65176489D01*
X92354786Y-65098988D01*
X92197826Y-65072796D01*
X92119347Y-65059700D01*
X91880653Y-65059700D01*
X91821793Y-65069522D01*
X91645213Y-65098988D01*
X91419458Y-65176489D01*
X91419453Y-65176491D01*
X91209529Y-65290098D01*
X91021169Y-65436704D01*
X90859508Y-65612315D01*
X90833808Y-65651652D01*
X90780661Y-65697008D01*
X90711430Y-65706431D01*
X90648094Y-65676928D01*
X90626192Y-65651652D01*
X90600494Y-65612318D01*
X90438832Y-65436705D01*
X90250469Y-65290097D01*
X90154152Y-65237972D01*
X90040546Y-65176491D01*
X90040541Y-65176489D01*
X89814786Y-65098988D01*
X89657826Y-65072796D01*
X89579347Y-65059700D01*
X89340653Y-65059700D01*
X89281793Y-65069522D01*
X89105213Y-65098988D01*
X88879458Y-65176489D01*
X88879453Y-65176491D01*
X88669529Y-65290098D01*
X88481169Y-65436704D01*
X88319508Y-65612315D01*
X88293808Y-65651652D01*
X88240661Y-65697008D01*
X88171430Y-65706431D01*
X88108094Y-65676928D01*
X88086192Y-65651652D01*
X88060494Y-65612318D01*
X87898832Y-65436705D01*
X87710469Y-65290097D01*
X87614152Y-65237972D01*
X87500546Y-65176491D01*
X87500541Y-65176489D01*
X87274786Y-65098988D01*
X87117826Y-65072796D01*
X87039347Y-65059700D01*
X86800653Y-65059700D01*
X86741793Y-65069522D01*
X86565213Y-65098988D01*
X86339458Y-65176489D01*
X86339453Y-65176491D01*
X86129529Y-65290098D01*
X85941169Y-65436704D01*
X85779508Y-65612315D01*
X85753808Y-65651652D01*
X85700661Y-65697008D01*
X85631430Y-65706431D01*
X85568094Y-65676928D01*
X85546192Y-65651652D01*
X85520494Y-65612318D01*
X85358832Y-65436705D01*
X85170469Y-65290097D01*
X85074152Y-65237972D01*
X84960546Y-65176491D01*
X84960541Y-65176489D01*
X84734786Y-65098988D01*
X84577826Y-65072796D01*
X84499347Y-65059700D01*
X84260653Y-65059700D01*
X84201793Y-65069522D01*
X84025213Y-65098988D01*
X83799458Y-65176489D01*
X83799453Y-65176491D01*
X83589529Y-65290098D01*
X83401169Y-65436704D01*
X83239508Y-65612315D01*
X83213808Y-65651652D01*
X83160661Y-65697008D01*
X83091430Y-65706431D01*
X83028094Y-65676928D01*
X83006192Y-65651652D01*
X82980494Y-65612318D01*
X82818832Y-65436705D01*
X82630469Y-65290097D01*
X82534152Y-65237972D01*
X82420546Y-65176491D01*
X82420541Y-65176489D01*
X82194786Y-65098988D01*
X82037826Y-65072796D01*
X81959347Y-65059700D01*
X81720653Y-65059700D01*
X81661793Y-65069522D01*
X81485213Y-65098988D01*
X81259458Y-65176489D01*
X81259453Y-65176491D01*
X81049529Y-65290098D01*
X80861169Y-65436704D01*
X80699508Y-65612315D01*
X80673808Y-65651652D01*
X80620661Y-65697008D01*
X80551430Y-65706431D01*
X80488094Y-65676928D01*
X80466192Y-65651652D01*
X80440494Y-65612318D01*
X80278832Y-65436705D01*
X80090469Y-65290097D01*
X79994152Y-65237972D01*
X79880546Y-65176491D01*
X79880541Y-65176489D01*
X79654786Y-65098988D01*
X79497826Y-65072796D01*
X79419347Y-65059700D01*
X79180653Y-65059700D01*
X79121793Y-65069522D01*
X78945213Y-65098988D01*
X78719458Y-65176489D01*
X78719453Y-65176491D01*
X78509529Y-65290098D01*
X78321169Y-65436704D01*
X78159508Y-65612315D01*
X78133808Y-65651652D01*
X78080661Y-65697008D01*
X78011430Y-65706431D01*
X77948094Y-65676928D01*
X77926192Y-65651652D01*
X77900494Y-65612318D01*
X77738832Y-65436705D01*
X77550469Y-65290097D01*
X77454152Y-65237972D01*
X77340546Y-65176491D01*
X77340541Y-65176489D01*
X77114786Y-65098988D01*
X76957826Y-65072796D01*
X76879347Y-65059700D01*
X76640653Y-65059700D01*
X76581793Y-65069522D01*
X76405213Y-65098988D01*
X76179458Y-65176489D01*
X76179453Y-65176491D01*
X75969529Y-65290098D01*
X75781169Y-65436704D01*
X75619506Y-65612317D01*
X75488951Y-65812147D01*
X75393070Y-66030732D01*
X75334475Y-66262118D01*
X75334473Y-66262130D01*
X75314764Y-66499994D01*
X75314764Y-66500005D01*
X69000500Y-66500005D01*
X69000500Y-61500005D01*
X72054764Y-61500005D01*
X72074473Y-61737869D01*
X72074475Y-61737881D01*
X72133070Y-61969267D01*
X72228951Y-62187852D01*
X72228953Y-62187856D01*
X72359506Y-62387682D01*
X72521168Y-62563295D01*
X72709531Y-62709903D01*
X72919455Y-62823509D01*
X73145216Y-62901012D01*
X73380653Y-62940300D01*
X73380654Y-62940300D01*
X73619346Y-62940300D01*
X73619347Y-62940300D01*
X73854784Y-62901012D01*
X74080545Y-62823509D01*
X74290469Y-62709903D01*
X74478832Y-62563295D01*
X74640494Y-62387682D01*
X74771047Y-62187856D01*
X74866929Y-61969267D01*
X74925525Y-61737878D01*
X74945236Y-61500000D01*
X74925525Y-61262122D01*
X74866929Y-61030733D01*
X74771047Y-60812144D01*
X74640494Y-60612318D01*
X74478832Y-60436705D01*
X74338978Y-60327853D01*
X74298166Y-60271143D01*
X74294491Y-60201370D01*
X74329122Y-60140687D01*
X74338979Y-60132146D01*
X74478832Y-60023295D01*
X74640494Y-59847682D01*
X74771047Y-59647856D01*
X74866929Y-59429267D01*
X74925525Y-59197878D01*
X74945236Y-58960000D01*
X74925525Y-58722122D01*
X74866929Y-58490733D01*
X74771047Y-58272144D01*
X74640494Y-58072318D01*
X74478832Y-57896705D01*
X74338978Y-57787853D01*
X74298166Y-57731143D01*
X74294491Y-57661370D01*
X74329122Y-57600687D01*
X74338979Y-57592146D01*
X74478832Y-57483295D01*
X74640494Y-57307682D01*
X74771047Y-57107856D01*
X74866929Y-56889267D01*
X74925525Y-56657878D01*
X74945236Y-56420000D01*
X74925525Y-56182122D01*
X74866929Y-55950733D01*
X74771047Y-55732144D01*
X74640494Y-55532318D01*
X74478832Y-55356705D01*
X74338978Y-55247853D01*
X74298166Y-55191143D01*
X74294491Y-55121370D01*
X74329122Y-55060687D01*
X74338979Y-55052146D01*
X74478832Y-54943295D01*
X74640494Y-54767682D01*
X74771047Y-54567856D01*
X74866929Y-54349267D01*
X74925525Y-54117878D01*
X74945236Y-53880000D01*
X74925525Y-53642122D01*
X74866929Y-53410733D01*
X74771047Y-53192144D01*
X74640494Y-52992318D01*
X74478832Y-52816705D01*
X74338978Y-52707853D01*
X74298166Y-52651143D01*
X74294491Y-52581370D01*
X74329122Y-52520687D01*
X74338979Y-52512146D01*
X74478832Y-52403295D01*
X74640494Y-52227682D01*
X74771047Y-52027856D01*
X74866929Y-51809267D01*
X74925525Y-51577878D01*
X74945236Y-51340000D01*
X74925525Y-51102122D01*
X74866929Y-50870733D01*
X74771047Y-50652144D01*
X74640494Y-50452318D01*
X74478832Y-50276705D01*
X74290469Y-50130097D01*
X74194152Y-50077972D01*
X74080546Y-50016491D01*
X74080541Y-50016489D01*
X73854786Y-49938988D01*
X73697826Y-49912796D01*
X73619347Y-49899700D01*
X73380653Y-49899700D01*
X73321793Y-49909522D01*
X73145213Y-49938988D01*
X72919458Y-50016489D01*
X72919453Y-50016491D01*
X72709529Y-50130098D01*
X72521169Y-50276704D01*
X72359506Y-50452317D01*
X72228951Y-50652147D01*
X72133070Y-50870732D01*
X72074475Y-51102118D01*
X72074473Y-51102130D01*
X72054764Y-51339994D01*
X72054764Y-51340005D01*
X72074473Y-51577869D01*
X72074475Y-51577881D01*
X72133070Y-51809267D01*
X72228951Y-52027852D01*
X72228953Y-52027856D01*
X72359506Y-52227682D01*
X72521168Y-52403295D01*
X72521171Y-52403297D01*
X72521174Y-52403300D01*
X72661020Y-52512147D01*
X72701833Y-52568857D01*
X72705508Y-52638630D01*
X72670876Y-52699313D01*
X72661020Y-52707853D01*
X72521174Y-52816699D01*
X72521171Y-52816702D01*
X72359506Y-52992317D01*
X72228951Y-53192147D01*
X72133070Y-53410732D01*
X72074475Y-53642118D01*
X72074473Y-53642130D01*
X72054764Y-53879994D01*
X72054764Y-53880005D01*
X72074473Y-54117869D01*
X72074475Y-54117881D01*
X72133070Y-54349267D01*
X72228951Y-54567852D01*
X72228953Y-54567856D01*
X72359506Y-54767682D01*
X72521168Y-54943295D01*
X72521171Y-54943297D01*
X72521174Y-54943300D01*
X72661020Y-55052147D01*
X72701833Y-55108857D01*
X72705508Y-55178630D01*
X72670876Y-55239313D01*
X72661020Y-55247853D01*
X72521174Y-55356699D01*
X72521171Y-55356702D01*
X72359506Y-55532317D01*
X72228951Y-55732147D01*
X72133070Y-55950732D01*
X72074475Y-56182118D01*
X72074473Y-56182130D01*
X72054764Y-56419994D01*
X72054764Y-56420005D01*
X72074473Y-56657869D01*
X72074475Y-56657881D01*
X72133070Y-56889267D01*
X72228951Y-57107852D01*
X72228953Y-57107856D01*
X72359506Y-57307682D01*
X72521168Y-57483295D01*
X72521171Y-57483297D01*
X72521174Y-57483300D01*
X72661020Y-57592147D01*
X72701833Y-57648857D01*
X72705508Y-57718630D01*
X72670876Y-57779313D01*
X72661020Y-57787853D01*
X72521174Y-57896699D01*
X72521171Y-57896702D01*
X72359506Y-58072317D01*
X72228951Y-58272147D01*
X72133070Y-58490732D01*
X72074475Y-58722118D01*
X72074473Y-58722130D01*
X72054764Y-58959994D01*
X72054764Y-58960005D01*
X72074473Y-59197869D01*
X72074475Y-59197881D01*
X72133070Y-59429267D01*
X72228951Y-59647852D01*
X72228953Y-59647856D01*
X72359506Y-59847682D01*
X72521168Y-60023295D01*
X72521171Y-60023297D01*
X72521174Y-60023300D01*
X72661020Y-60132147D01*
X72701833Y-60188857D01*
X72705508Y-60258630D01*
X72670876Y-60319313D01*
X72661020Y-60327853D01*
X72521174Y-60436699D01*
X72521171Y-60436702D01*
X72359506Y-60612317D01*
X72228951Y-60812147D01*
X72133070Y-61030732D01*
X72074475Y-61262118D01*
X72074473Y-61262130D01*
X72054764Y-61499994D01*
X72054764Y-61500005D01*
X69000500Y-61500005D01*
X69000500Y-46260005D01*
X72054764Y-46260005D01*
X72074473Y-46497869D01*
X72074475Y-46497881D01*
X72133070Y-46729267D01*
X72228951Y-46947852D01*
X72228953Y-46947856D01*
X72359506Y-47147682D01*
X72521168Y-47323295D01*
X72709531Y-47469903D01*
X72919455Y-47583509D01*
X73145216Y-47661012D01*
X73380653Y-47700300D01*
X73380654Y-47700300D01*
X73619346Y-47700300D01*
X73619347Y-47700300D01*
X73854784Y-47661012D01*
X74080545Y-47583509D01*
X74290469Y-47469903D01*
X74478832Y-47323295D01*
X74640494Y-47147682D01*
X74771047Y-46947856D01*
X74866929Y-46729267D01*
X74925525Y-46497878D01*
X74945236Y-46260000D01*
X74925525Y-46022122D01*
X74866929Y-45790733D01*
X74771047Y-45572144D01*
X74640494Y-45372318D01*
X74478832Y-45196705D01*
X74290469Y-45050097D01*
X74194152Y-44997972D01*
X74080546Y-44936491D01*
X74080541Y-44936489D01*
X73854786Y-44858988D01*
X73697826Y-44832796D01*
X73619347Y-44819700D01*
X73380653Y-44819700D01*
X73321793Y-44829522D01*
X73145213Y-44858988D01*
X72919458Y-44936489D01*
X72919453Y-44936491D01*
X72709529Y-45050098D01*
X72521169Y-45196704D01*
X72359506Y-45372317D01*
X72228951Y-45572147D01*
X72133070Y-45790732D01*
X72074475Y-46022118D01*
X72074473Y-46022130D01*
X72054764Y-46259994D01*
X72054764Y-46260005D01*
X69000500Y-46260005D01*
X69000500Y-42510005D01*
X75434764Y-42510005D01*
X75454473Y-42747869D01*
X75454475Y-42747881D01*
X75513070Y-42979267D01*
X75608951Y-43197852D01*
X75608953Y-43197856D01*
X75739506Y-43397682D01*
X75901168Y-43573295D01*
X76089531Y-43719903D01*
X76299455Y-43833509D01*
X76525216Y-43911012D01*
X76760653Y-43950300D01*
X76760654Y-43950300D01*
X76999346Y-43950300D01*
X76999347Y-43950300D01*
X77234784Y-43911012D01*
X77460545Y-43833509D01*
X77670469Y-43719903D01*
X77858832Y-43573295D01*
X78020494Y-43397682D01*
X78046191Y-43358350D01*
X78099337Y-43312993D01*
X78168568Y-43303569D01*
X78231904Y-43333071D01*
X78253809Y-43358350D01*
X78279506Y-43397682D01*
X78441168Y-43573295D01*
X78629531Y-43719903D01*
X78839455Y-43833509D01*
X79065216Y-43911012D01*
X79300653Y-43950300D01*
X79300654Y-43950300D01*
X79539346Y-43950300D01*
X79539347Y-43950300D01*
X79774784Y-43911012D01*
X80000545Y-43833509D01*
X80210469Y-43719903D01*
X80398832Y-43573295D01*
X80560494Y-43397682D01*
X80586191Y-43358350D01*
X80639337Y-43312993D01*
X80708568Y-43303569D01*
X80771904Y-43333071D01*
X80793809Y-43358350D01*
X80819506Y-43397682D01*
X80981168Y-43573295D01*
X81169531Y-43719903D01*
X81379455Y-43833509D01*
X81605216Y-43911012D01*
X81840653Y-43950300D01*
X81840654Y-43950300D01*
X82079346Y-43950300D01*
X82079347Y-43950300D01*
X82314784Y-43911012D01*
X82540545Y-43833509D01*
X82750469Y-43719903D01*
X82938832Y-43573295D01*
X83100494Y-43397682D01*
X83126191Y-43358350D01*
X83179337Y-43312993D01*
X83248568Y-43303569D01*
X83311904Y-43333071D01*
X83333809Y-43358350D01*
X83359506Y-43397682D01*
X83521168Y-43573295D01*
X83709531Y-43719903D01*
X83919455Y-43833509D01*
X84145216Y-43911012D01*
X84380653Y-43950300D01*
X84380654Y-43950300D01*
X84619346Y-43950300D01*
X84619347Y-43950300D01*
X84854784Y-43911012D01*
X85080545Y-43833509D01*
X85290469Y-43719903D01*
X85478832Y-43573295D01*
X85640494Y-43397682D01*
X85666191Y-43358350D01*
X85719337Y-43312993D01*
X85788568Y-43303569D01*
X85851904Y-43333071D01*
X85873809Y-43358350D01*
X85899506Y-43397682D01*
X86061168Y-43573295D01*
X86249531Y-43719903D01*
X86459455Y-43833509D01*
X86685216Y-43911012D01*
X86920653Y-43950300D01*
X86920654Y-43950300D01*
X87159346Y-43950300D01*
X87159347Y-43950300D01*
X87394784Y-43911012D01*
X87620545Y-43833509D01*
X87830469Y-43719903D01*
X88018832Y-43573295D01*
X88180494Y-43397682D01*
X88206191Y-43358350D01*
X88259337Y-43312993D01*
X88328568Y-43303569D01*
X88391904Y-43333071D01*
X88413809Y-43358350D01*
X88439506Y-43397682D01*
X88601168Y-43573295D01*
X88789531Y-43719903D01*
X88999455Y-43833509D01*
X89225216Y-43911012D01*
X89460653Y-43950300D01*
X89460654Y-43950300D01*
X89699346Y-43950300D01*
X89699347Y-43950300D01*
X89934784Y-43911012D01*
X90160545Y-43833509D01*
X90370469Y-43719903D01*
X90558832Y-43573295D01*
X90720494Y-43397682D01*
X90746191Y-43358350D01*
X90799337Y-43312993D01*
X90868568Y-43303569D01*
X90931904Y-43333071D01*
X90953809Y-43358350D01*
X90979506Y-43397682D01*
X91141168Y-43573295D01*
X91329531Y-43719903D01*
X91539455Y-43833509D01*
X91765216Y-43911012D01*
X92000653Y-43950300D01*
X92000654Y-43950300D01*
X92239346Y-43950300D01*
X92239347Y-43950300D01*
X92474784Y-43911012D01*
X92700545Y-43833509D01*
X92910469Y-43719903D01*
X93098832Y-43573295D01*
X93260494Y-43397682D01*
X93286191Y-43358350D01*
X93339337Y-43312993D01*
X93408568Y-43303569D01*
X93471904Y-43333071D01*
X93493809Y-43358350D01*
X93519506Y-43397682D01*
X93681168Y-43573295D01*
X93869531Y-43719903D01*
X94079455Y-43833509D01*
X94305216Y-43911012D01*
X94540653Y-43950300D01*
X94540654Y-43950300D01*
X94779346Y-43950300D01*
X94779347Y-43950300D01*
X95014784Y-43911012D01*
X95240545Y-43833509D01*
X95450469Y-43719903D01*
X95638832Y-43573295D01*
X95800494Y-43397682D01*
X95931047Y-43197856D01*
X96026929Y-42979267D01*
X96085525Y-42747878D01*
X96105236Y-42510000D01*
X96085525Y-42272122D01*
X96026929Y-42040733D01*
X95931047Y-41822144D01*
X95800494Y-41622318D01*
X95638832Y-41446705D01*
X95450469Y-41300097D01*
X95354152Y-41247972D01*
X95240546Y-41186491D01*
X95240541Y-41186489D01*
X95014786Y-41108988D01*
X94857826Y-41082796D01*
X94779347Y-41069700D01*
X94540653Y-41069700D01*
X94481793Y-41079522D01*
X94305213Y-41108988D01*
X94079458Y-41186489D01*
X94079453Y-41186491D01*
X93869529Y-41300098D01*
X93681169Y-41446704D01*
X93519508Y-41622315D01*
X93493808Y-41661652D01*
X93440661Y-41707008D01*
X93371430Y-41716431D01*
X93308094Y-41686928D01*
X93286192Y-41661652D01*
X93260494Y-41622318D01*
X93098832Y-41446705D01*
X92910469Y-41300097D01*
X92814152Y-41247972D01*
X92700546Y-41186491D01*
X92700541Y-41186489D01*
X92474786Y-41108988D01*
X92317826Y-41082796D01*
X92239347Y-41069700D01*
X92000653Y-41069700D01*
X91941793Y-41079522D01*
X91765213Y-41108988D01*
X91539458Y-41186489D01*
X91539453Y-41186491D01*
X91329529Y-41300098D01*
X91141169Y-41446704D01*
X90979508Y-41622315D01*
X90953808Y-41661652D01*
X90900661Y-41707008D01*
X90831430Y-41716431D01*
X90768094Y-41686928D01*
X90746192Y-41661652D01*
X90720494Y-41622318D01*
X90558832Y-41446705D01*
X90370469Y-41300097D01*
X90274152Y-41247972D01*
X90160546Y-41186491D01*
X90160541Y-41186489D01*
X89934786Y-41108988D01*
X89777826Y-41082796D01*
X89699347Y-41069700D01*
X89460653Y-41069700D01*
X89401793Y-41079522D01*
X89225213Y-41108988D01*
X88999458Y-41186489D01*
X88999453Y-41186491D01*
X88789529Y-41300098D01*
X88601169Y-41446704D01*
X88439508Y-41622315D01*
X88413808Y-41661652D01*
X88360661Y-41707008D01*
X88291430Y-41716431D01*
X88228094Y-41686928D01*
X88206192Y-41661652D01*
X88180494Y-41622318D01*
X88018832Y-41446705D01*
X87830469Y-41300097D01*
X87734152Y-41247972D01*
X87620546Y-41186491D01*
X87620541Y-41186489D01*
X87394786Y-41108988D01*
X87237826Y-41082796D01*
X87159347Y-41069700D01*
X86920653Y-41069700D01*
X86861793Y-41079522D01*
X86685213Y-41108988D01*
X86459458Y-41186489D01*
X86459453Y-41186491D01*
X86249529Y-41300098D01*
X86061169Y-41446704D01*
X85899508Y-41622315D01*
X85873808Y-41661652D01*
X85820661Y-41707008D01*
X85751430Y-41716431D01*
X85688094Y-41686928D01*
X85666192Y-41661652D01*
X85640494Y-41622318D01*
X85478832Y-41446705D01*
X85290469Y-41300097D01*
X85194152Y-41247972D01*
X85080546Y-41186491D01*
X85080541Y-41186489D01*
X84854786Y-41108988D01*
X84697826Y-41082796D01*
X84619347Y-41069700D01*
X84380653Y-41069700D01*
X84321793Y-41079522D01*
X84145213Y-41108988D01*
X83919458Y-41186489D01*
X83919453Y-41186491D01*
X83709529Y-41300098D01*
X83521169Y-41446704D01*
X83359508Y-41622315D01*
X83333808Y-41661652D01*
X83280661Y-41707008D01*
X83211430Y-41716431D01*
X83148094Y-41686928D01*
X83126192Y-41661652D01*
X83100494Y-41622318D01*
X82938832Y-41446705D01*
X82750469Y-41300097D01*
X82654152Y-41247972D01*
X82540546Y-41186491D01*
X82540541Y-41186489D01*
X82314786Y-41108988D01*
X82157826Y-41082796D01*
X82079347Y-41069700D01*
X81840653Y-41069700D01*
X81781793Y-41079522D01*
X81605213Y-41108988D01*
X81379458Y-41186489D01*
X81379453Y-41186491D01*
X81169529Y-41300098D01*
X80981169Y-41446704D01*
X80819508Y-41622315D01*
X80793808Y-41661652D01*
X80740661Y-41707008D01*
X80671430Y-41716431D01*
X80608094Y-41686928D01*
X80586192Y-41661652D01*
X80560494Y-41622318D01*
X80398832Y-41446705D01*
X80210469Y-41300097D01*
X80114152Y-41247972D01*
X80000546Y-41186491D01*
X80000541Y-41186489D01*
X79774786Y-41108988D01*
X79617826Y-41082796D01*
X79539347Y-41069700D01*
X79300653Y-41069700D01*
X79241793Y-41079522D01*
X79065213Y-41108988D01*
X78839458Y-41186489D01*
X78839453Y-41186491D01*
X78629529Y-41300098D01*
X78441169Y-41446704D01*
X78279508Y-41622315D01*
X78253808Y-41661652D01*
X78200661Y-41707008D01*
X78131430Y-41716431D01*
X78068094Y-41686928D01*
X78046192Y-41661652D01*
X78020494Y-41622318D01*
X77858832Y-41446705D01*
X77670469Y-41300097D01*
X77574152Y-41247972D01*
X77460546Y-41186491D01*
X77460541Y-41186489D01*
X77234786Y-41108988D01*
X77077826Y-41082796D01*
X76999347Y-41069700D01*
X76760653Y-41069700D01*
X76701793Y-41079522D01*
X76525213Y-41108988D01*
X76299458Y-41186489D01*
X76299453Y-41186491D01*
X76089529Y-41300098D01*
X75901169Y-41446704D01*
X75739506Y-41622317D01*
X75608951Y-41822147D01*
X75513070Y-42040732D01*
X75454475Y-42272118D01*
X75454473Y-42272130D01*
X75434764Y-42509994D01*
X75434764Y-42510005D01*
X69000500Y-42510005D01*
X69000500Y-39624500D01*
X69020185Y-39557461D01*
X69072989Y-39511706D01*
X69124500Y-39500500D01*
X97375500Y-39500500D01*
X97442539Y-39520185D01*
G37*
%TD.AperFunction*%
%TD*%
M02*
